<svg width="10370" height="9801" viewBox="0 0 10370 9801" fill="none" xmlns="http://www.w3.org/2000/svg">
<g filter="url(#filter0_d_129_1547)">
<rect x="48" y="48" width="10262" height="9693" rx="18" fill="white"/>
</g>
<mask id="mask0_129_1547" style="mask-type:luminance" maskUnits="userSpaceOnUse" x="48" y="48" width="10262" height="9693">
<rect x="48" y="48" width="10262" height="9693" rx="18" fill="white"/>
</mask>
<g mask="url(#mask0_129_1547)">
<g opacity="0.08">
<path d="M8995.05 9056.47C8607.58 8991.1 8561.34 8746.63 8502.64 8436.8C8436.59 8090.87 8355.13 7660.51 7762.19 7317.3C7464.98 7145.7 7180.25 7038.11 6891.11 6988.4C6632.8 6944.14 6375.95 6946.86 6107.36 6997.26C5608.35 7091.23 5137.22 7341.82 4680.77 7583.56C4253.67 7810.32 3811.89 8045.25 3336.36 8161.01C3080.98 8223.66 2837.35 8246.81 2591.51 8233.19C2315.58 8217.53 2044.06 8155.56 1762.26 8043.21C1269.85 7847.09 780.378 7778.99 307.781 7840.28C220.454 7851.86 133.86 7867.52 48 7887.95V7909.06C135.328 7888.63 222.655 7872.28 311.451 7860.71C780.378 7799.42 1265.45 7867.52 1754.19 8061.59C2101.3 8199.83 2422.72 8257.03 2725.8 8257.03C3457.45 8257.03 4081.95 7925.4 4691.78 7601.94C5167.31 7349.31 5615.69 7110.97 6111.77 7017.68C6377.42 6967.29 6631.33 6964.57 6886.71 7008.83C7173.64 7057.86 7456.17 7164.77 7750.44 7335.01C8010.96 7485.5 8335.32 7672.76 8481.35 8440.2C8511.44 8600.23 8537.86 8738.46 8607.58 8849.46C8684.63 8972.71 8807.18 9044.89 8991.38 9076.22C9536.62 9168.83 9860.98 9315.23 10011.4 9537.22C10047.4 9589.66 10073.8 9646.86 10091.4 9707.46H10114.2C10095.8 9642.77 10068.7 9582.85 10029.8 9526.33C9875.66 9299.57 9546.9 9150.44 8995.05 9056.47Z" fill="#848484"/>
<path d="M8569.18 9282.31C8107.61 9218.67 8064.31 9090.72 7970.38 8811.8C7888.19 8568.77 7764.18 8200.49 7279.12 7666.35C6626.75 6947.39 5934.75 7396.91 5133.41 7917.51C4321.07 8445.56 3400.12 9043.33 2275.89 8612.77C1845.14 8447.59 1410.71 8366.35 983.628 8369.73C665.881 8372.44 351.07 8422.54 48 8518.67V8540.33C351.07 8443.52 665.147 8393.43 983.628 8390.72C1407.78 8386.66 1839.27 8468.57 2267.09 8632.4C2773.43 8826.7 3284.9 8830.08 3829.4 8643.91C4305.66 8480.76 4732.74 8203.2 5145.89 7935.11C5542.15 7677.86 5916.4 7434.82 6266.44 7348.16C6653.16 7252.03 6969.44 7357.64 7262.24 7680.56C7744.36 8212 7867.64 8577.57 7949.1 8819.25C8043.03 9098.17 8090.73 9238.3 8566.25 9303.97C8844.37 9342.56 9018.28 9437.34 9083.59 9585.6C9099.74 9622.83 9109.28 9663.45 9112.95 9707.46H9134.96C9132.03 9660.74 9121.75 9617.42 9104.14 9578.15C9035.16 9421.09 8855.37 9322.25 8569.18 9282.31Z" fill="#848484"/>
<path d="M6292.96 8390.14C6089.37 8264.05 5816.21 8268.14 5481.53 8404.45C5215.69 8512.14 4910.31 8702.98 4573.44 8970.15C4229.24 9244.13 3921.66 9544.02 3729.78 9740.99H3759.08C3950.95 9544.02 4251.21 9252.31 4587.35 8985.14C4922.76 8718.65 5225.95 8529.18 5489.59 8422.18C5816.94 8289.27 6082.78 8283.82 6279.78 8406.5C6737.49 8690.71 6980.63 9170.53 7195.2 9593.77C7220.83 9643.53 7245 9692.6 7269.9 9740.31H7294.07C7267.7 9689.87 7241.34 9638.07 7214.97 9584.91C7000.4 9159.62 6755.8 8677.08 6292.96 8390.14Z" fill="#848484"/>
<path d="M5709.04 9082.45C5615.21 9020.08 5493.94 9021.44 5348.86 9086.51C5234.81 9138.03 5105.6 9228.87 4964.85 9356.99C4830.59 9479.69 4710.05 9613.24 4630.65 9707.46H4658.8C4884.01 9443.76 5400.1 8902.13 5696.05 9098.72C5887.33 9226.16 5999.21 9479.01 6095.93 9707.46H6119.03C6020.86 9474.95 5908.26 9214.64 5709.04 9082.45Z" fill="#848484"/>
<path d="M2076.84 9073.91C1889.08 9029.85 1694.74 8984.45 1520.13 8930.38C1086.9 8794.85 584.982 8909.01 240.144 9028.51C172.2 9051.88 107.908 9076.58 48 9101.28V9123.31C110.1 9097.94 177.314 9071.91 248.181 9047.21C589.365 8929.04 1086.16 8816.22 1512.83 8949.74C1687.44 9004.48 1882.5 9049.88 2071 9093.94C2494.74 9192.74 2895.1 9286.21 2922.86 9455.78C2934.55 9527.21 2880.49 9610.66 2759.21 9707.46H2791.36C2906.06 9610.66 2956.47 9526.54 2944.78 9452.44C2914.83 9269.52 2526.88 9179.39 2076.84 9073.91Z" fill="#848484"/>
<path d="M1823.01 9355.16C1676.45 9331.67 1498.06 9333.05 1333.73 9359.3C1029.51 9407.66 434.387 9562.4 48 9666.7V9688.12C434.387 9583.81 1033.21 9428.38 1338.18 9379.34C1500.28 9353.78 1675.71 9351.71 1820.05 9375.19C2028.79 9409.04 2102.07 9480.19 2127.23 9534.76C2150.18 9583.81 2144.26 9641.84 2110.21 9707.46H2135.38C2167.94 9639.76 2171.65 9578.97 2147.22 9526.48C2097.63 9420.09 1943.66 9374.5 1823.01 9355.16Z" fill="#848484"/>
<path d="M986.79 5583.66C1317.38 5791.71 1533.15 6090.1 1722.58 6353.58C1937.61 6651.97 2124.12 6909.97 2415.22 6951.72C2442.28 6955.83 2470.07 6957.2 2497.87 6957.2C2722.41 6957.2 2989.37 6836.06 3328.01 6580.79C3581.8 6389.17 3793.18 6215.34 3979.68 6061.35C4373.18 5736.27 4657.69 5501.53 4972.2 5425.57C5293.28 5347.55 5645.82 5429.68 6188.52 5708.22C6631.74 5936.11 7160.55 6092.83 7638.15 6138C7860.5 6159.22 8062.37 6155.11 8222.54 6125C8391.5 6093.52 8509.98 6036.71 8573.61 5955.27C8660.65 5843.72 8681.86 5636.36 8286.17 5281.17C7812.96 4856.17 7274.65 4804.84 6704.88 4750.78C6327.48 4715.19 5936.91 4677.55 5542.69 4529.04C5096.53 4361.37 4709.62 4069.83 4359.28 3639.36C4100.37 3321.12 3798.3 3170.56 3484.53 3204.09C3270.96 3226.68 3061.04 3332.07 2860.64 3516.17C2659.5 3702.32 2478.12 3958.96 2323.06 4279.24C2207.5 4516.72 2080.24 4638.54 1931.76 4650.86C1610.68 4677.55 1239.12 4172.48 880.737 3683.84C701.544 3439.52 516.499 3187.67 340.232 3007C248.807 2913.24 165.427 2844.11 87.167 2798.26V2823.58C333.649 2975.51 601.342 3339.6 862.452 3695.47C1042.38 3940.48 1228.88 4194.38 1408.08 4379.16C1599.7 4576.26 1763.54 4672.76 1907.62 4672.76C1916.4 4672.76 1925.18 4672.07 1933.95 4671.39C2090.47 4658.39 2224.32 4533.15 2342.81 4288.14C2497.13 3969.91 2676.33 3715.32 2876 3531.23C3072.75 3349.87 3278.27 3246.53 3486.72 3224.63C3791.71 3192.46 4087.93 3340.29 4341.73 3652.36C4694.26 4086.25 5084.83 4379.16 5533.91 4548.2C5931.06 4698.08 6323.09 4735.04 6701.96 4771.31C7268.06 4825.37 7802.72 4876.02 8270.81 5296.22C8655.53 5641.83 8637.98 5838.93 8556.06 5943.64C8436.11 6096.26 8093.82 6161.27 7640.35 6118.16C7165.67 6072.99 6639.79 5916.95 6198.75 5690.42C5650.94 5409.14 5294.01 5327.02 4966.34 5406.41C4646.72 5483.74 4360.74 5719.85 3965.06 6046.98C3778.55 6200.96 3567.91 6374.79 3314.11 6565.73C2938.17 6849.07 2653.65 6965.41 2418.14 6931.87C2136.55 6892.18 1952.97 6637.59 1740.13 6342.63C1549.24 6077.78 1332.74 5778.02 998.493 5567.23C721.292 5392.72 457.256 5305.12 210.774 5305.12C169.084 5305.12 128.125 5307.86 87.167 5312.65V5333.18C364.368 5298.28 666.437 5382.45 986.79 5583.66Z" fill="#848484"/>
<path d="M460.257 7585.6C800.498 7590.42 1181.16 7654.47 1516.99 7710.25C1998.32 7790.83 2377.51 7854.19 2424.54 7708.19C2495.09 7489.19 2265.81 7308.06 1885.15 7008.48C1612.52 6793.62 1272.28 6526.41 908.523 6142.12C635.154 5853.56 362.521 5722.71 99.4403 5754.39C83.2734 5756.46 66.3715 5759.21 48 5762.66V5784.01C65.6367 5780.56 84.0082 5777.12 102.38 5775.05C358.112 5744.75 623.397 5872.85 892.356 6155.9C1257.58 6541.56 1597.82 6809.46 1871.19 7025.01C2244.5 7319.08 2470.1 7496.76 2403.97 7702.68C2362.81 7830.77 1972.6 7765.35 1521.4 7690.28C1034.18 7609.02 462.462 7513.29 48.7349 7595.93V7617.28C164.843 7593.87 302.262 7582.85 460.257 7585.6Z" fill="#848484"/>
<path d="M1445.36 7493.84C1638.41 7493.84 1746.81 7461.06 1767.6 7394.8C1813.63 7250.42 1429.77 6990.27 1195.88 6847.99C865.477 6646.42 471.96 6456.71 260.351 6396.03C189.815 6375.8 118.536 6361.85 48.7425 6353.48V6374.41C116.309 6382.78 185.36 6396.73 253.669 6416.26C463.792 6476.24 855.083 6664.55 1183.26 6865.42C1565.64 7099.07 1775.77 7294.36 1745.32 7388.52C1715.62 7480.59 1451.3 7497.32 1000.61 7435.95C635.307 7386.43 254.411 7300.64 48 7246.24V7267.86C255.896 7322.96 634.564 7407.35 996.897 7456.87C1178.81 7481.28 1327.3 7493.84 1445.36 7493.84Z" fill="#848484"/>
<path d="M485.884 7091.35C574.495 7091.35 623.969 7075.26 633.569 7043.07C654.245 6978.69 506.56 6871.62 378.813 6793.24C268.788 6725.37 143.256 6660.98 48 6621.8V6644.89C141.041 6684.08 261.404 6746.36 366.998 6811.44C530.928 6912.21 624.708 6998.98 612.155 7037.47C592.217 7099.75 296.11 7064.76 48 7012.28V7033.27C122.581 7048.67 206.022 7064.06 287.249 7075.26C367.737 7085.76 433.456 7091.35 485.884 7091.35Z" fill="#848484"/>
<path fill-rule="evenodd" clip-rule="evenodd" d="M2580.29 6554.72C2559.14 6554.72 2538.71 6552.66 2519.02 6547.86C2340.29 6506.05 2198.05 6387.46 2107.59 6204.44C2016.41 6017.99 1985.77 5777.39 2020.06 5507.99C2051.42 5265.33 2142.61 5024.73 2285.58 4812.23C2794.03 4054.78 3216.39 3639.38 3541.01 3577.68C3645.32 3557.81 3740.89 3574.94 3823.32 3629.1C4132.46 3830.89 4334.11 4027.33 4511.96 4200.57L4518.51 4206.95L4520.1 4208.5C4795.08 4476.48 5012.55 4688.4 5488.71 4810.86C5789.98 4888.32 5932.23 4959.61 5922.74 5029.53C5915.45 5083.68 5813.32 5126.87 5618.55 5158.4C5429.62 5188.56 5156.8 5207.07 4829.99 5211.18C4583.43 5214.61 4327.38 5304.41 4046.54 5487.43C3801.43 5647.83 3569.46 5856.9 3364.48 6041.98C3061.74 6315.49 2796.95 6554.72 2580.29 6554.72ZM2304.55 4823.2C2163.76 5032.96 2073.31 5270.82 2042.67 5510.74C2009.12 5776.02 2039.02 6012.51 2128.75 6195.53C2215.56 6373.07 2352.7 6488.23 2524.85 6527.99C2543.09 6532.1 2562.06 6534.16 2581.02 6534.16C2788.19 6534.16 3050.06 6297.69 3349.13 6027.62L3349.16 6027.59C3554.14 5841.83 3786.85 5632.07 4034.14 5470.98C4318.63 5285.9 4579.05 5194.05 4829.99 5190.62C5156.07 5186.51 5427.43 5168 5614.91 5137.84C5856.36 5098.77 5897.94 5051.47 5901.59 5026.79C5911.8 4948.65 5612.72 4862.96 5483.6 4830.06C5000.69 4705.3 4781.12 4491.43 4503.92 4220.67L4500.92 4217.74C4322.93 4044.35 4121.39 3848 3811.65 3645.55C3754.75 3608.54 3692.01 3590.03 3623.44 3590.03C3598.64 3590.03 3572.38 3592.77 3546.12 3597.57C3228.07 3658.58 2810.08 4070.55 2304.55 4823.2Z" fill="#848484"/>
<path fill-rule="evenodd" clip-rule="evenodd" d="M7769.26 5812.22C7427.17 5765.88 7036.94 5688.87 6806.45 5636.4C6422.05 5549.17 6257.21 5471.48 6238.24 5369.94C6221.47 5277.94 6327.96 5166.86 6572.31 5020.34C6705.79 4940.6 6879.39 4923.57 7090.19 4971.27C7257.22 5008.75 7447.59 5086.44 7656.2 5202.29C8003.4 5395.15 8287.14 5630.94 8301 5642.53C8403.11 5710 8443.96 5760.42 8425.73 5797.91C8408.22 5832.66 8338.2 5850.38 8212.74 5850.38C8105.52 5850.38 7958.18 5837.43 7769.26 5812.22ZM6871.37 4964.47C6760.5 4964.47 6664.94 4989 6584.71 5036.7C6352.03 5176.41 6245.54 5284.08 6260.13 5364.5C6280.55 5479.67 6550.43 5555.99 6811.55 5615.28C7444.68 5759.07 8351.33 5899.46 8405.3 5788.38C8412.6 5773.38 8407.49 5736.58 8287.87 5657.53L8287.14 5656.85C8286.97 5656.73 8285.87 5655.83 8283.87 5654.19C8251.05 5627.3 7977.32 5403 7645.26 5218.66C7438.84 5104.17 7250.66 5027.16 7085.81 4990.36C7009.22 4973.33 6937.74 4964.47 6871.37 4964.47Z" fill="#848484"/>
<path d="M10310 5451.25C10257.8 5400.46 10198.3 5348.3 10130.7 5296.14C9873.41 5097.78 9547.07 4934.43 9160.46 4810.2C8677.57 4655.09 8099.12 4560.37 7441.3 4528.8C7064.98 4510.95 6343.21 4448.5 5733.9 4229.55C5092.24 3999.62 4736.5 3659.88 4677.7 3219.93C4609.35 2710.66 4676.23 2394.94 4888.65 2225.41C5120.91 2040.1 5541.33 2031.86 6173.43 2202.08C6612.22 2320.13 6967.23 2482.11 7252.41 2612.51C7533.91 2741.55 7756.61 2843.13 7955.06 2860.97C8170.42 2880.19 8338.73 2798.51 8500.43 2596.04C8603.33 2467.01 8684.92 2344.84 8756.95 2237.08C8901.74 2019.51 9006.85 1862.33 9178.1 1803.99C9358.91 1742.22 9603.67 1794.38 9997.63 1978.33C10110.1 2030.49 10213.7 2088.83 10310 2149.23V2124.52C10216.7 2066.18 10116 2010.58 10007.9 1959.79C9608.08 1773.11 9358.18 1720.94 9170.75 1784.09C8992.15 1845.17 8886.31 2004.41 8738.57 2225.41C8667.28 2332.48 8585.69 2453.97 8483.53 2583C8151.31 2999.61 7816.88 2846.56 7262.7 2593.29C6976.78 2462.2 6620.31 2299.54 6180.04 2181.49C5539.86 2009.9 5112.82 2018.82 4874.68 2208.94C4656.39 2383.27 4587.3 2705.17 4656.39 3221.99C4716.66 3670.18 5076.81 4015.41 5726.55 4248.77C6338.8 4468.4 7063.51 4530.86 7440.56 4549.39C8096.18 4580.28 8671.69 4674.99 9152.38 4829.42C9536.05 4952.96 9860.18 5114.94 10115.2 5311.24C10190.2 5368.89 10254.9 5426.54 10310 5481.45V5451.25V5451.25Z" fill="#848484"/>
<path d="M10310 5018.64C10155.3 4909.41 9969.19 4799.5 9758.28 4695.77C9159.13 4400.38 8452.7 4194.98 7770.35 4118.04C7079.25 4039.73 6574.97 3953.86 6183.81 3846.69C5683.9 3710.67 5368.64 3540.99 5219.76 3329.41C5119.05 3185.84 5097.16 3020.28 5153.35 2836.18C5195.68 2700.16 5273.04 2610.17 5390.53 2561.39C5788.26 2395.15 6550.89 2743.44 7223.75 3050.51C7469.68 3163.17 7702.48 3268.96 7900.26 3341.78C8233.77 3464.74 8438.84 3492.22 8586.25 3432.46C8728.56 3374.75 8810.3 3241.48 8922.68 3056.69C8990.55 2945.4 9067.18 2819.69 9175.19 2680.93C9290.49 2532.54 9436.45 2454.92 9609.41 2450.11C9845.86 2443.93 10102 2575.13 10310 2719.39V2693.98C9986.71 2472.09 9753.91 2426.06 9609.41 2429.5C9429.88 2434.31 9278.09 2514.68 9158.4 2668.56C9049.66 2808.01 8973.04 2935.1 8904.44 3046.39C8684.04 3407.04 8583.33 3571.91 7908.28 3322.54C7711.24 3249.73 7479.17 3143.93 7233.23 3031.96C6556 2722.83 5788.26 2372.48 5381.77 2542.85C5259.17 2593.68 5175.25 2691.23 5132.19 2831.37C5073.81 3020.97 5096.43 3192.71 5200.79 3341.78C5353.31 3556.79 5672.23 3729.22 6177.97 3866.61C6570.59 3973.78 7076.33 4059.65 7768.17 4137.96C8447.59 4214.9 9151.1 4419.61 9748.07 4713.63C9961.89 4819.42 10153.1 4932.77 10310 5045.43V5018.64Z" fill="#848484"/>
<path d="M10309.3 4715.37C9892.86 4375.06 9328.14 4238.93 8885.43 4133.06C8455.87 4029.93 8146.12 3955.68 8179.72 3754.93C8189.22 3696.5 8275.42 3700.62 8426.65 3713C8566.91 3724 8740.78 3738.43 8905.16 3686.18C9099.48 3624.31 9233.17 3484.75 9313.53 3259.25C9369.78 3101.12 9459.64 3010.37 9579.45 2991.12C9798.62 2955.37 10086.5 3156.12 10310 3355.5V3326.62C10304.2 3321.81 10299 3316.31 10293.2 3311.5C9998.06 3055.74 9756.98 2940.93 9575.8 2970.49C9447.22 2991.12 9352.25 3086 9293.08 3252.37C9116.28 3748.06 8702.79 3714.37 8428.84 3692.37C8279.81 3680 8171.69 3671.75 8158.54 3752.18C8141.73 3853.93 8200.91 3932.31 8347.02 3997.62C8477.05 4056.06 8664.08 4101.43 8880.32 4153C9326.68 4260.25 9895.78 4397.06 10310 4743.56V4715.37H10309.3Z" fill="#848484"/>
<path d="M10310 4517.11C10169.3 4431.65 10014.9 4310.47 9882.17 4180.17C9683.48 3984.73 9565.29 3804 9550.06 3670.21C9542.08 3598.06 9564.56 3540.62 9618.22 3499.99C9806.76 3357.08 10114.2 3595.25 10310 3785.09V3754.97C10269.4 3716.44 10225.2 3676.51 10178.7 3638.69C10070.7 3551.12 9970.64 3490.88 9882.9 3460.06C9771.23 3420.83 9676.96 3428.54 9604.44 3483.88C9544.98 3528.71 9519.6 3592.45 9528.31 3673.01C9558.76 3946.21 9982.96 4346.19 10310 4542.33V4517.11V4517.11Z" fill="#848484"/>
<path fill-rule="evenodd" clip-rule="evenodd" d="M7777.13 3698.78C7779.65 3700.45 7781.06 3701.37 7781.3 3701.52C7868.37 3761.91 7898.37 3811.44 7872.76 3849.44C7843.49 3889.47 7749.11 3905.08 7624.72 3905.08C7454.24 3905.08 7225.95 3875.9 7025.47 3838.58C6537.44 3748.34 6072.09 3595 5780.88 3428.76C5453.08 3241.49 5341.87 3038.61 5459.67 2841.85C5491.13 2788.92 5543.81 2755 5615.52 2740.07C5846.73 2691.89 6282.08 2839.81 6908.4 3178.39C7348.55 3415.84 7733.05 3669.68 7777.13 3698.78ZM7583.01 3883.34C7785.69 3888.09 7839.83 3856.2 7853.74 3837.2C7877.15 3803.95 7820.08 3754.42 7768.13 3718.46C7749.1 3705.57 6315 2751.58 5708.44 2751.58C5676.24 2751.58 5646.98 2754.29 5619.9 2759.72C5554.78 2773.29 5507.23 2803.83 5478.69 2851.32C5420.16 2949.03 5420.89 3048.09 5481.62 3146.47C5536.49 3236.04 5641.12 3324.92 5791.85 3411.09C6080.87 3575.97 6543.29 3728.64 7029.13 3818.2C7237.66 3856.88 7434.48 3879.95 7583.01 3883.34Z" fill="#848484"/>
<path fill-rule="evenodd" clip-rule="evenodd" d="M7056.38 3529.03C7061.65 3531.97 7064.57 3533.6 7064.9 3533.74C7065.52 3534.19 7066.21 3534.68 7066.97 3535.22C7079.55 3544.14 7109.14 3565.13 7094.03 3585.53C7084.56 3598.64 7055.43 3603.23 7016.1 3603.23C6908.32 3603.23 6725.52 3565.21 6678.91 3555.38C6436.4 3502.93 6211.36 3427.54 6077.36 3353.46C5942.63 3278.73 5896.02 3205.96 5938.26 3137.13C5948.46 3120.74 5965.93 3109.6 5989.24 3104.35C6083.91 3082.06 6293.66 3148.27 6613.37 3299.71C6823.65 3399.3 7014.39 3505.63 7056.38 3529.03ZM6683.28 3536.36C6930.89 3589.46 7063.44 3590.77 7075.82 3574.38C7076.55 3573.07 7075.09 3565.2 7051.79 3550.12C7031.4 3538.32 6287.1 3120.08 6030.02 3120.08C6016.18 3120.08 6004.53 3121.39 5993.61 3124.01C5975.4 3127.94 5963.75 3135.81 5956.47 3146.96C5920.78 3204.64 5964.48 3268.23 6087.55 3336.41C6219.37 3409.83 6442.22 3484.57 6683.28 3536.36Z" fill="#848484"/>
<path fill-rule="evenodd" clip-rule="evenodd" d="M2731.33 6044.32C2658.49 6073.39 2598.76 6085.16 2549.96 6085.16C2450.89 6085.16 2396.26 6036.02 2366.39 5985.49C2171.9 5658.12 2611.14 4604.01 3208.45 4192.89C3386.92 4070.38 3547.17 4020.55 3684.12 4045.47C3797.02 4066.23 3893.9 4136.14 3972.57 4253.8C4049.79 4368.69 4086.94 4501.58 4081.84 4638.62C4076.74 4774.97 4029.39 4905.78 3945.62 5016.52L3923.04 5046.28L3921.72 5048.02C3643.87 5415 3356.79 5794.17 2731.33 6044.32ZM3221.56 4210.19C2951.32 4396.37 2685.44 4740.36 2510.62 5130.02C2346.73 5495.47 2297.19 5826.99 2385.33 5975.11C2444.33 6074.08 2557.24 6090.69 2722.59 6024.25C3343.21 5775.78 3628.75 5398.57 3904.83 5033.13L3927.41 5003.36C4008.99 4896.09 4054.88 4769.43 4059.98 4637.23C4065.08 4504.34 4028.66 4375.61 3954.36 4264.87C3879.33 4152.74 3786.82 4085.61 3680.47 4066.23C3658.62 4062.08 3636.04 4060 3613.46 4060C3497.64 4060 3366.52 4110.53 3221.56 4210.19Z" fill="#848484"/>
<path fill-rule="evenodd" clip-rule="evenodd" d="M2919.98 5589.52C2873.67 5607.84 2835.58 5615.59 2804.96 5615.59C2746.71 5615.59 2714.6 5588.11 2696.67 5559.22C2645.14 5473.25 2676.51 5291.44 2778.08 5084.97C2884.13 4870.75 3043.2 4676.25 3204.52 4566.32C3311.32 4493.74 3406.91 4464.15 3489.81 4478.94C3557.77 4490.92 3616.77 4532.5 3663.83 4602.97C3757.18 4742.49 3751.2 4920.07 3647.39 5056.08C3482.34 5272.41 3302.36 5437.31 2919.98 5589.52ZM3217.96 4583.94C3060.38 4691.76 2903.55 4882.72 2798.99 5094.13C2701.9 5291.44 2669.79 5469.72 2716.84 5549.35C2748.2 5602.2 2813.93 5609.25 2911.76 5570.49C3289.66 5420.39 3466.66 5257.61 3629.47 5044.09C3728.05 4915.14 3734.03 4746.72 3645.16 4614.95C3601.09 4550.11 3548.07 4511.36 3486.08 4500.08C3473.38 4497.97 3460.69 4496.56 3447.24 4496.56C3379.28 4496.56 3303.1 4526.16 3217.96 4583.94Z" fill="#848484"/>
<path opacity="0.3" d="M3103.37 5213.12C3111.78 5213.12 3122.14 5211.03 3134.44 5205.45C3230.25 5162.2 3274.91 5114.77 3316.34 5052.69C3343.53 5012.23 3345.48 4958.53 3320.88 4917.37C3307.93 4895.75 3292.39 4883.19 3273.62 4879.01C3251.61 4874.13 3225.72 4883.19 3197.88 4904.82C3113.08 4971.08 3040.58 5135.69 3071 5193.59C3075.53 5201.96 3084.6 5213.12 3103.37 5213.12Z" fill="#848484" stroke="#575757" stroke-width="5"/>
<path d="M10307.8 9117.93C10097.1 9108.95 9892.33 9083.39 9711.11 9041.94C9472.44 8987.36 9272.08 8905.15 9115.91 8798.76C8924.39 8668.19 8798.42 8499.62 8740.23 8296.51C8659.2 8011.18 8531.02 7741.75 8369.7 7516.53C8180.39 7251.93 7948.35 7048.13 7678.74 6909.96C7182.98 6655.03 6579.68 6630.85 5886.5 6838.11C5046.74 7088.89 4393.34 7352.11 3916 7544.86C3306.8 7790.11 2970.9 7925.52 2894.29 7776.98C2887.66 7763.86 2886.92 7750.04 2892.82 7734.84C2936.28 7622.23 3296.49 7468.86 3714.16 7292C4025.02 7160.05 4377.87 7010.13 4655.58 6851.24C4976.76 6667.47 5145.45 6500.97 5171.23 6342.77C5207.32 6120.31 5303.09 5964.18 5447.47 5891.64C5611.74 5809.43 5836.41 5830.84 6116.33 5955.2C6630.5 6183.18 7885.73 6455.38 8648.15 6455.38C8911.13 6455.38 9115.91 6422.91 9210.94 6344.84C9268.4 6297.86 9284.6 6236.38 9258.82 6161.76C9174.11 5915.13 9272.08 5660.2 9486.44 5569.7C9755.31 5456.4 10052.2 5620.82 10307.8 5884.04V5849.5C10207.6 5748.63 10106 5669.88 10003.6 5613.22C9815.72 5508.91 9628.61 5486.8 9477.6 5551.05C9252.93 5645.7 9149.8 5910.98 9238.19 6167.98C9261.03 6234.3 9247.03 6287.5 9196.94 6328.95C9038.57 6458.83 8526.6 6469.89 7791.44 6358.66C7156.46 6262.63 6472.13 6089.22 6126.65 5935.85C5840.09 5808.74 5608.79 5788.01 5438.63 5872.99C5287.62 5948.29 5188.17 6109.95 5150.6 6339.31C5094.62 6682.67 4324.83 7010.13 3706.06 7272.66C3267.03 7459.19 2920.07 7606.34 2873.66 7727.24C2865.56 7747.97 2866.3 7767.31 2875.87 7785.27C2917.12 7865.41 3018.04 7879.23 3204.41 7830.18C3376.05 7784.58 3619.14 7687.17 3926.31 7563.51C4402.92 7371.45 5056.31 7108.24 5894.61 6857.46C6581.89 6652.27 7179.3 6675.76 7669.9 6927.23C7935.82 7064.02 8165.65 7265.75 8352.76 7526.89C8512.61 7750.73 8640.05 8018.09 8720.34 8300.65C8779.27 8507.91 8908.18 8680.62 9104.13 8813.96C9262.5 8921.73 9465.81 9004.63 9707.43 9060.59C9890.85 9102.74 10097.8 9128.99 10310 9137.28V9117.93H10307.8Z" fill="#848484"/>
<path d="M10309.3 8700.36C9963.98 8775.23 9691.75 8763.55 9482.22 8665.33C9173.09 8519.72 9037.34 8202.4 8937.01 7880.96C8830.77 7541.67 8526.07 7290.97 8281.13 7089.73C8116.61 6954.42 7986.76 6847.96 7980.86 6762.8C7979.38 6738.76 7988.23 6717.46 8007.42 6697.55C8074.55 6627.49 8288.51 6671.45 8560.01 6727.08C8777.65 6771.72 9049.15 6827.36 9331.71 6842.47C9462.3 6849.34 9547.88 6828.73 9594.36 6779.28C9660.76 6707.85 9635.68 6588.34 9609.12 6461.96C9571.49 6285.44 9533.13 6103.43 9712.4 6003.15C9772.16 5969.5 9838.56 5963.32 9909.39 5982.55C10028.9 6016.2 10165.4 6127.47 10310 6306.74V6271.71C10192 6128.85 10054 6001.78 9916.03 5963.32C9839.3 5941.34 9767 5948.89 9701.34 5985.3C9508.78 6093.13 9550.83 6290.94 9587.72 6466.08C9613.54 6587.65 9637.89 6702.35 9578.13 6766.23C9536.81 6810.19 9456.4 6828.73 9333.19 6821.86C9052.1 6806.75 8782.08 6751.12 8565.17 6706.47C8276.7 6647.41 8067.91 6604.14 7991.92 6683.12C7969.05 6707.16 7957.99 6733.95 7960.2 6763.48C7966.1 6856.89 8098.9 6966.1 8267.85 7104.15C8510.58 7303.34 8813.06 7551.97 8917.09 7885.77C9018.9 8211.33 9156.13 8533.46 9473.37 8682.5C9595.1 8739.51 9737.49 8768.36 9902.01 8768.36C10025.2 8768.36 10161 8752.56 10310 8720.28V8700.36H10309.3Z" fill="#848484"/>
<path d="M10310 8168.07C10137.1 8210.26 9926.08 8234.47 9754.64 8172.91C9628.62 8127.95 9537.03 8040.79 9482.82 7914.9C9408.08 7740.58 9276.94 7578.72 9171.43 7448.67C9067.39 7320.7 8978.01 7210.03 9005.85 7160.22C9023.43 7129.1 9087.17 7117.34 9200.74 7123.56L9238.84 7125.64C9578.8 7145.01 9750.24 7154.69 9834.5 7082.06C9875.53 7046.78 9895.31 6991.44 9897.51 6903.59C9901.17 6782.54 9969.31 6681.55 10067.5 6651.81C10140.8 6629.67 10223.5 6646.96 10310 6699.53V6673.94C10198.6 6610.3 10112.2 6616.53 10060.9 6632.44C9953.92 6664.95 9879.19 6773.55 9875.53 6903.59C9873.33 6985.22 9855.74 7035.71 9819.84 7066.84C9742.18 7133.94 9564.14 7123.56 9240.3 7104.89L9202.2 7102.81C9076.92 7095.89 9008.78 7111.11 8986.07 7150.54C8951.63 7212.1 9035.89 7316.55 9153.12 7461.82C9257.89 7591.17 9388.3 7751.65 9461.57 7923.2C9517.98 8054.63 9613.96 8145.24 9745.84 8192.97C9823.51 8220.64 9908.5 8231.71 9993.49 8231.71C10105.6 8231.71 10216.9 8213.03 10309.3 8190.89V8168.07H10310Z" fill="#848484"/>
<path d="M10310 7775.28C10133.4 7779.36 9883.1 7758.95 9835.99 7616.08C9807.29 7529 9827.16 7444.64 9890.46 7378.65C9975.84 7289.52 10126.7 7243.26 10310 7245.98V7225.57C10120.1 7223.53 9963.33 7271.84 9874.27 7365.04C9805.08 7437.16 9783.74 7528.32 9814.65 7622.2C9848.51 7724.25 9973.63 7782.08 10186.3 7793.65C10214.3 7795.01 10242.3 7795.69 10268.8 7795.69C10282.8 7795.69 10296 7795.69 10309.3 7795.01V7775.28H10310Z" fill="#848484"/>
<path d="M860.689 5237.08C1140.21 5344.58 1407.17 5447.92 1587.6 5447.92C1636.4 5447.92 1678.56 5440.29 1713.31 5423.65C1762.12 5400.07 1793.17 5357.76 1806.49 5298.81C1838.28 5160.1 1680.77 5026.25 1441.92 4823.74C1205.29 4623.31 881.395 4349.36 595.216 3938.79C401.472 3660.68 218.081 3481.75 48.7395 3401.99V3424.88C212.165 3504.63 388.901 3679.41 576.729 3949.88C865.126 4363.23 1189.76 4637.87 1427.13 4839C1660.07 5036.65 1814.62 5167.04 1785.04 5293.95C1772.47 5347.36 1745.85 5383.42 1702.96 5404.23C1549.89 5479.82 1219.34 5352.21 869.563 5216.97C638.845 5128.2 399.993 5035.96 192.938 4994.35C141.175 4983.94 92.3688 4977.01 48 4973.54V4994.35C90.8899 4997.81 138.217 5004.06 188.501 5014.46C393.338 5056.77 630.711 5148.31 860.689 5237.08Z" fill="#848484"/>
<path d="M722.772 4877.73C796.178 4877.73 842.762 4860.35 861.82 4826.25C908.404 4740.68 767.945 4577.55 443.264 4339.54C296.451 4232.57 143.993 4133.62 48 4072.78V4096.18C369.152 4298.76 916.874 4681.84 843.468 4816.89C827.94 4845.64 785.59 4858.35 726.301 4858.35C570.313 4858.35 293.628 4774.11 48 4684.52V4705.91C100.937 4725.3 156.698 4744.69 213.164 4763.41C442.558 4839.63 613.368 4877.73 722.772 4877.73Z" fill="#848484"/>
<path fill-rule="evenodd" clip-rule="evenodd" d="M3922.64 6468.78C3961.72 6407.64 4002.96 6352.55 4046.37 6304.18C4184.58 6149.66 4392.24 6069.04 4601.36 6087.85C4724.37 6099.27 4786.59 6139.58 4787.32 6208.78C4788.76 6437.87 4038.42 6916.22 3700.51 6949.81C3651.3 6955.18 3613.68 6957.2 3585.46 6957.2C3524.68 6957.2 3504.42 6947.12 3497.18 6932.34C3482.71 6901.44 3534.81 6857.09 3621.64 6783.19C3714.25 6704.59 3840.88 6597.1 3922.64 6468.78ZM4358.24 6637.41C4610.77 6470.79 4767.78 6306.19 4767.06 6209.45C4766.34 6152.35 4710.62 6118.76 4601.36 6108.68C4581.82 6106.66 4562.29 6105.99 4542.75 6105.99C4360.41 6105.99 4185.3 6182.58 4064.47 6316.94C4021.78 6363.97 3981.25 6419.06 3942.91 6478.85C3860.44 6608.69 3733.2 6716.74 3640.07 6795.83L3637.56 6797.97L3634.27 6800.77C3573.06 6852.97 3510.36 6906.44 3518.89 6923.6C3523.95 6934.35 3559.41 6943.76 3699.78 6929.65C3854.63 6914.2 4112.95 6799.32 4358.24 6637.41Z" fill="#848484"/>
<path d="M804.279 2799.9C969.428 3084.24 1146.32 3376.82 1318.81 3590.41C1508.91 3824.61 1674.06 3938.62 1824.53 3938.62C1826 3938.62 1827.47 3938.62 1828.94 3938.62C1978.67 3936.56 2110.79 3823.92 2232.63 3595.91C2488.8 3117.21 2791.94 2824.63 3109.76 2751.14C3327.02 2701 3550.15 2750.45 3772.55 2899.49C3943.57 3014.19 4065.42 3051.96 4143.22 3015.56C4258.46 2961.99 4265.06 2762.13 4272.4 2531.36C4280.48 2277.93 4289.28 1990.16 4451.5 1858.3C4527.1 1797.17 4628.39 1774.51 4761.24 1788.25C5109.16 1825.33 5440.19 1775.88 5718.37 1646.76C5982.61 1523.83 6187.39 1336.33 6309.97 1104.19C6426.67 883.728 6460.44 635.106 6409.06 386.484C6387.77 282.777 6351.81 181.13 6302.63 81.5439H6277.67C6449.43 420.824 6458.97 777.96 6290.89 1095.26C6170.51 1323.28 5969.4 1507.34 5709.56 1628.22C5435.05 1755.97 5107.69 1804.04 4764.18 1767.64C4626.92 1753.22 4516.82 1777.94 4437.55 1842.5C4268 1979.86 4259.19 2272.44 4250.38 2529.99C4243.78 2744.96 4237.17 2948.25 4133.68 2996.33C4063.21 3029.3 3949.44 2991.52 3785.03 2881.63C3556.76 2729.16 3327.75 2678.34 3103.88 2729.85C2779.46 2805.4 2471.18 3101.41 2212.81 3585.6C2094.64 3806.07 1969.13 3914.58 1828.94 3916.64C1827.47 3916.64 1826 3916.64 1824.53 3916.64C1505.24 3916.64 1155.13 3359.65 823.363 2788.23C620.047 2437.96 372.691 2197.58 87.167 2069.83V2092.5C365.351 2221.62 606.101 2457.88 804.279 2799.9Z" fill="#848484"/>
<path d="M1073.74 1926.23C1199.99 1926.23 1310.9 1908.97 1402.12 1873.76C1610.09 1793.68 1713.71 1630.06 1710.06 1385.67C1706.41 1146.11 1774.27 967.989 1917.3 841.65C2269.75 528.218 3028.66 582.068 3832.81 640.059C3951.02 648.344 4073.61 657.319 4194.02 664.913C4311.5 672.507 4419.5 675.959 4518.74 675.959C4971.9 675.959 5228.76 599.327 5284.94 446.754C5324.35 339.055 5258.67 208.573 5153.6 81.5439H5125.14C5233.13 207.883 5301.73 336.984 5264.51 440.54C5200.3 615.896 4841.28 684.934 4196.21 644.892C4075.8 637.298 3953.21 628.323 3835 620.038C3026.47 562.047 2262.45 507.507 1902.7 827.152C1755.3 958.323 1685.25 1141.27 1688.9 1387.05C1692.55 1621.78 1593.3 1779.87 1394.82 1855.81C1139.42 1953.85 724.21 1908.97 254.272 1732.93C198.084 1712.22 142.626 1689.43 87.167 1665.96V1688.74C139.707 1711.53 192.976 1732.93 246.245 1752.26C553.456 1866.86 839.506 1926.23 1073.74 1926.23Z" fill="#848484"/>
<path d="M656.911 1254.07C919.533 1239.08 1142.03 1110.23 1319.3 870.956L1348.48 831.417C1563.69 541.012 1671.65 395.127 1831.41 334.456C1991.18 273.784 2207.84 295.599 2639.71 339.909C2692.23 345.363 2748.4 350.817 2807.49 356.952C3318.88 408.761 3689.47 425.804 3940.42 409.443C4181.88 393.764 4319.03 348.09 4371.55 265.604C4403.65 215.158 4402.19 153.804 4375.93 81.5439H4353.32C4379.58 151.078 4382.5 209.022 4352.59 255.378C4304.44 331.047 4169.48 374.676 3938.96 389.674C3689.47 405.353 3320.34 388.31 2809.68 336.501C2750.59 330.366 2694.42 324.912 2641.9 319.458C2206.38 274.466 1988.26 251.97 1822.66 315.368C1657.06 378.767 1547.64 526.014 1330.24 819.828L1301.06 859.367C1127.44 1093.19 910.779 1219.31 655.452 1233.62C524.141 1241.12 333.74 1219.99 87.167 1112.28V1134.78C303.83 1228.17 477.452 1255.44 606.575 1255.44C624.083 1255.44 640.862 1254.76 656.911 1254.07Z" fill="#848484"/>
<path d="M943.992 801.201C1051.66 753.696 1125.45 672.868 1162.34 560.842C1217.31 397.767 1229.35 233.275 1220.32 81.5439H1197.73C1206.77 231.147 1194.72 393.513 1140.51 554.461C1105.12 660.814 1035.1 737.389 933.451 782.057C691.759 889.119 315.292 801.201 48 714.7V737.389C227.951 795.528 455.338 852.959 660.136 852.959C763.288 852.25 861.17 838.07 943.992 801.201Z" fill="#848484"/>
<path d="M5446.91 587.001C5301.7 854.797 4662.47 818.497 4655.18 817.812C4296.89 817.812 3964.14 793.841 3670.8 771.924C3234.44 739.734 2857.18 712.338 2578.43 780.143C2431.03 815.758 2316.46 876.714 2228.9 965.751C2134.04 1061.64 2069.82 1191.08 2031.88 1360.25C1905.64 1925.98 1575.08 1993.79 1308.74 2047.89C1148.2 2080.77 1009.56 2108.85 963.585 2243.09C921.991 2365.69 970.152 2609.51 1087.63 2864.3C1213.14 3137.57 1383.9 3349.21 1544.43 3430.02C1596.24 3456.05 1648.05 3469.06 1696.94 3469.06C1790.34 3469.06 1878.64 3422.49 1955.99 3331.4C2073.47 3193.05 2169.06 3042.37 2261.74 2896.49C2434.68 2623.9 2583.54 2388.97 2814.85 2336.24C2957.15 2304.05 3122.79 2343.77 3319.81 2459.52C3581.05 2612.25 3762.01 2660.2 3873.66 2606.09C4012.3 2538.97 4026.17 2331.44 4040.76 2110.9C4060.47 1815.03 4080.9 1508.88 4404.89 1522.58C4479.32 1525.31 4550.83 1527.37 4620.15 1527.37C5320.67 1527.37 5775.28 1371.9 5971.57 1063.69C6126.27 821.922 6086.86 530.154 6027.03 328.793C5998.57 232.222 5962.81 147.294 5931.44 81.5439H5907.36C5939.46 147.294 5976.68 235.647 6005.87 334.957C6111.67 693.16 6035.06 923.287 5952.6 1053.42C5740.98 1384.91 5219.97 1536.27 4405.62 1502.71C4250.19 1496.55 4146.57 1558.19 4088.92 1691.75C4038.57 1807.49 4028.36 1961.6 4018.87 2110.9C4005.01 2325.28 3991.14 2527.32 3863.44 2588.97C3759.1 2639.65 3585.43 2591.7 3330.76 2443.08C3127.9 2324.59 2957.15 2283.5 2809.02 2317.74C2568.94 2372.54 2417.16 2610.88 2242.03 2887.58C2150.09 3032.78 2054.5 3182.77 1937.74 3319.75C1823.91 3453.31 1694.75 3484.13 1553.19 3412.9C1397.03 3334.14 1229.2 3126.61 1105.88 2857.45C992.773 2610.88 943.153 2367.06 982.557 2250.62C1024.88 2127.34 1151.12 2101.32 1311.66 2069.13C1445.92 2041.73 1597.7 2010.91 1733.43 1913.65C1890.31 1801.33 1994.66 1621.89 2051.58 1365.05C2122.36 1046.57 2285.82 872.604 2582.08 800.69C2706.13 770.554 2851.34 759.596 3012.6 759.596C3208.17 759.596 3429.27 776.033 3667.15 793.156C3961.22 814.388 4293.97 839.044 4652.26 839.044C4652.26 839.044 4652.26 839.044 4652.99 839.044C4654.45 839.044 4819.36 849.318 4999.6 824.661C5244.78 791.786 5400.94 715.077 5465.15 597.274C5534.48 469.198 5489.96 296.603 5332.35 82.2288H5306.08C5466.61 294.548 5513.31 463.719 5446.91 587.001Z" fill="#848484"/>
<path d="M5494.21 848.782C5374.4 991.508 5012.06 1050.69 4447.36 1020.05C4018.55 997.077 3621.14 929.544 3617.49 928.848C3615.3 928.151 3372.76 887.074 3099.54 937.898C2938.1 967.14 2797.84 1022.14 2681.68 1101.51C2536.31 1200.37 2428.92 1336.83 2363.17 1506.71C2236.06 1836.03 2093.61 2060.91 1927.05 2194.58C1782.41 2310.85 1641.41 2341.48 1509.92 2363.07C1317.79 2394.4 1252.77 2511.36 1232.32 2603.96C1191.41 2784.98 1290.03 3029.35 1443.44 3127.52C1485.08 3153.98 1527.45 3167.21 1568.36 3167.21C1606.35 3167.21 1643.61 3156.07 1678.67 3133.09C1822.58 3039.8 1970.15 2860.17 2126.48 2670.8C2423.81 2309.46 2731.36 1936.28 3040.37 2123.57C3085.66 2150.72 3129.5 2177.87 3171.14 2204.33C3397.6 2345.66 3577.31 2457.75 3690.54 2404.84C3757.75 2373.51 3795.74 2290.66 3809.62 2143.06C3838.11 1838.12 3890.7 1608.36 4055.07 1478.86C4171.96 1386.27 4338.52 1352.15 4564.98 1373.04C5199.08 1432.22 5616.94 1325 5807.6 1055.56C5960.28 839.731 5933.99 559.153 5885.04 361.426C5857.28 249.334 5819.29 150.47 5789.34 81.5439H5765.96C5795.92 149.774 5835.36 250.726 5863.85 366.299C5911.34 559.849 5936.91 834.161 5789.34 1043.72C5603.79 1306.2 5192.5 1409.94 4567.17 1352.15C4334.86 1330.57 4163.19 1366.77 4041.19 1462.85C3871.71 1597.22 3816.92 1831.15 3787.7 2141.67C3774.55 2279.52 3740.22 2359.59 3681.04 2386.74C3578.77 2434.08 3404.17 2325.47 3183.55 2187.62C3141.18 2161.16 3097.35 2134.01 3052.06 2106.86C2905.22 2017.74 2746.7 2040.02 2567.72 2175.09C2411.39 2292.05 2257.98 2478.64 2109.68 2658.96C1954.81 2847.64 1807.97 3025.18 1666.98 3117.08C1584.43 3170.69 1507 3143.53 1455.86 3110.81C1309.03 3016.82 1214.79 2782.19 1253.51 2608.83C1273.23 2522.5 1333.86 2413.2 1513.57 2383.95C1647.99 2361.67 1791.9 2330.34 1940.93 2210.59C2110.41 2074.13 2255.06 1846.47 2383.63 1513.68C2447.92 1347.28 2552.38 1214.3 2693.37 1118.22C2806.6 1040.94 2944.67 987.33 3102.47 958.089C3204.74 939.291 3302.63 933.025 3385.18 933.025C3519.6 933.025 3611.64 949.038 3613.1 949.038C3616.76 949.734 4015.62 1017.27 4445.9 1040.24C5025.94 1071.57 5384.63 1011.7 5511.01 861.314C5635.93 713.018 5665.15 513.899 5595.02 283.449C5570.91 204.775 5539.5 135.153 5511.74 81.5439H5486.9C5515.39 134.457 5549 206.864 5573.84 289.018C5621.32 445.669 5646.16 668.46 5494.21 848.782Z" fill="#848484"/>
<path fill-rule="evenodd" clip-rule="evenodd" d="M3178.67 1121.24C3256.93 1085.47 3343.95 1077.9 3424.4 1100.6C3502.65 1122.61 3561.88 1168.7 3599.91 1237.49C3714 1444.54 3613.08 1808.44 3542.87 2006.55C3524.59 2058.83 3501.92 2086.35 3471.93 2092.54L3471.93 2092.54C3467.54 2093.23 3463.16 2093.91 3458.77 2093.91C3410.05 2093.91 3354.1 2040.19 3284.46 1973.31L3283.25 1972.16C3216.7 1908.18 3141.38 1835.95 3050.69 1785.05C2899.31 1699.75 2824.72 1604.14 2829.11 1499.58C2837.15 1317.29 3090.92 1161.82 3178.67 1121.24ZM3467.54 2072.59C3488.75 2067.78 3507.03 2044.39 3522.39 2000.36C3683.28 1544.98 3627.7 1333.11 3580.17 1247.81C3545.06 1184.53 3490.21 1141.88 3417.81 1121.24C3389.29 1112.98 3360.04 1108.86 3330.06 1108.86C3281.79 1108.86 3233.52 1119.18 3188.18 1139.81C3103.35 1179.02 2858.36 1328.29 2851.04 1500.27C2846.66 1596.57 2918.33 1686.69 3062.39 1767.17C3154.41 1818.28 3233.5 1894.37 3297.54 1955.98L3299.34 1957.71L3300.17 1958.51C3368.56 2024.21 3427.48 2080.81 3467.54 2072.59Z" fill="#848484"/>
<path fill-rule="evenodd" clip-rule="evenodd" d="M3240.18 1468.18C3262.72 1456.06 3287.83 1453.2 3311.01 1461.05C3334.18 1468.9 3351.57 1484.59 3362.51 1508.85C3394.7 1577.33 3367.02 1695.04 3347.7 1759.24C3344.49 1771.37 3338.05 1787.78 3323.88 1791.35C3321.95 1792.06 3320.66 1792.06 3318.73 1792.06C3302.79 1792.06 3287.48 1774.56 3267.17 1751.35L3266.58 1750.68C3249.2 1730.71 3229.24 1707.88 3205.42 1692.19C3162.28 1663.65 3141.03 1630.83 3142.32 1594.45C3144.73 1526.27 3227.98 1475.63 3238.99 1468.93C3239.73 1468.48 3240.14 1468.23 3240.18 1468.18ZM3320.02 1769.95C3321.95 1769.95 3325.82 1764.25 3329.68 1752.12C3343.84 1702.9 3375.39 1581.62 3346.42 1518.13C3337.4 1499.58 3324.53 1487.46 3306.5 1481.75C3299.42 1479.61 3291.69 1478.18 3284.61 1478.18C3272.38 1478.18 3260.79 1481.04 3249.2 1487.46C3231.82 1497.44 3164.21 1543.81 3162.28 1595.89C3160.99 1623 3179.02 1649.39 3215.72 1673.65C3241.47 1690.77 3263.36 1715.74 3280.75 1735.71C3281.62 1736.68 3282.51 1737.67 3283.41 1738.67C3297.1 1753.87 3313.38 1771.96 3320.02 1769.95Z" fill="#848484"/>
<path d="M10310 1661.91C9904.6 1393.29 9416.36 1169.67 9029.29 1295.11C8749.25 1385.79 8554.98 1650.32 8453.08 2081.21C8406.17 2280.29 8288.87 2405.73 8104.87 2454.14C7760.31 2545.5 7209.03 2335.51 6824.16 1965.3C6515.53 1669.41 6391.64 1344.2 6484 1073.53C6569.78 822.639 6593.97 549.927 6556.58 264.261C6548.52 203.583 6537.52 142.904 6524.32 81.5439H6501.6C6515.53 144.268 6526.52 205.628 6534.59 266.988C6571.98 549.927 6547.78 819.912 6463.48 1068.08C6368.18 1346.25 6494.27 1678.27 6808.76 1980.3C6992.04 2156.2 7222.23 2304.15 7457.55 2396.87C7624.69 2463 7785.97 2496.41 7928.19 2496.41C7994.17 2496.41 8055.75 2488.91 8111.46 2474.59C8300.6 2424.82 8426.69 2290.51 8475.08 2085.98C8575.51 1662.59 8763.91 1403.52 9036.62 1314.88C9419.3 1190.8 9906.8 1418.51 10310 1687.82V1661.91V1661.91Z" fill="#848484"/>
<path d="M10310 1137.88C10012 898.491 9544.5 686.538 9164.66 758.561C8928.73 803.146 8749.04 950.622 8631.44 1195.5C8468.55 1534.35 8261.84 1771.68 8016.41 1902.01C7753.45 2041.26 7519.71 2017.94 7369.97 1974.04C7188.82 1920.53 7032.5 1808.04 6929.51 1657.13C6822.86 1501.43 6783.42 1317.6 6819.21 1139.94C6892.99 770.907 6921.47 415.594 6903.21 81.5439H6881.3C6898.83 413.536 6871.07 768.164 6798.03 1135.82C6761.51 1318.97 6801.68 1507.6 6911.25 1667.42C7017.16 1822.44 7177.86 1937.68 7364.12 1992.56C7442.28 2015.88 7522.63 2026.85 7602.98 2026.85C7746.87 2026.85 7892.23 1990.5 8027.36 1919.16C8277.18 1786.78 8486.81 1546.01 8651.89 1203.05C8766.57 964.341 8940.42 821.667 9169.05 777.767C9354.58 742.784 9577.36 774.337 9813.3 870.368C9990.07 942.391 10168.3 1048.02 10310 1164.63V1137.88V1137.88Z" fill="#848484"/>
<path d="M5523.32 9493.3C5504.68 9477.12 5481.03 9470.65 5453.79 9473.24C5361.32 9482.3 5235.17 9602 5139.83 9707.47H5167.79C5258.82 9607.82 5374.94 9501.06 5455.94 9492.65C5476.73 9490.71 5493.93 9495.24 5508.27 9507.53C5557.73 9549.59 5612.92 9626.59 5663.1 9707.47H5688.18C5635.86 9622.06 5576.36 9539.24 5523.32 9493.3Z" fill="#848484"/>
<path d="M10310 742.578C10249.7 747.459 10182.8 747.459 10111.5 741.183C9860.83 718.87 9557.96 626.827 9280.07 487.369C8958.09 325.597 8689.03 566.86 8378.07 845.777C8141.35 1058.45 7873.03 1299.02 7540.75 1386.18C7423.86 1416.86 7333.44 1400.82 7270.95 1340.16C7058.5 1131.67 7200.38 449.017 7297.42 81.5439H7274.63C7245.22 193.808 7211.41 333.964 7184.94 480.396C7103.34 935.728 7126.87 1229.99 7254.78 1355.5C7301.09 1400.82 7360.64 1423.14 7432.68 1423.14C7467.97 1423.14 7505.46 1417.56 7546.63 1407.1C7883.32 1319.24 8154.58 1076.58 8392.77 861.815C8697.85 588.476 8961.03 352.094 9269.05 506.893C9552.81 649.838 9851.27 740.486 10108.6 762.799C10180.6 769.075 10248.2 769.772 10309.3 764.891V742.578H10310Z" fill="#848484"/>
<path d="M7606.18 985.062C7617.99 986.433 7629.07 987.118 7640.88 987.118C7837.26 987.118 8056.53 786.946 8173.91 662.181C8329.69 497.656 8481.04 283.773 8586.61 81.5439H8562.25C8458.15 278.974 8309.76 487.373 8157.67 648.47C7948 870.58 7753.1 983.005 7609.13 964.496C7549.33 956.955 7510.2 931.591 7489.53 888.403C7412.01 723.878 7621.68 341.357 7786.32 82.2295H7760.48C7727.99 134.329 7693.3 190.542 7660.07 248.811C7479.2 564.837 7414.97 782.833 7469.6 896.629C7492.48 946.673 7539 976.835 7606.18 985.062Z" fill="#848484"/>
<path d="M7870.19 550.39C7874.75 551.101 7880.07 551.101 7885.38 551.101C7930.98 551.101 8003.17 525.489 8103.47 418.06C8177.94 339.089 8249.37 231.66 8291.16 137.749C8298 122.097 8305.6 102.887 8312.44 82.2554H8288.88C8283.56 97.1958 8277.48 112.848 8270.64 129.211C8184.78 322.726 7988.73 543.987 7873.99 528.335C7852.71 525.489 7839.03 516.951 7831.43 501.3C7792.68 418.771 7949.97 174.744 8017.6 81.5439H7990.25C7941.62 150.555 7764.56 410.234 7810.92 509.837C7820.8 532.603 7840.55 546.121 7870.19 550.39Z" fill="#848484"/>
<path d="M10309.3 469.805C10212.5 521.666 10100.2 540.589 9974.49 524.469C9833.93 506.949 9676.41 448.079 9505.48 349.262C9356.44 263.059 9222.94 160.738 9128.29 81.5439H9095.8C9192.57 163.541 9334.54 274.973 9494.88 367.483C9668.64 467.702 9828.98 527.974 9972.37 545.494C10002 548.999 10031 551.101 10060 551.101C10151.8 551.101 10235.1 532.179 10310 493.633V469.805H10309.3Z" fill="#848484"/>
<path fill-rule="evenodd" clip-rule="evenodd" d="M5586.35 6245.82C5726.61 6167.78 5969.69 6165.69 6308.97 6240.25C6543.37 6292.14 6744.79 6364.24 6773.69 6374.59C6774.67 6374.94 6775.45 6375.22 6776.03 6375.42C6994.14 6413.74 7021.31 6447.89 7019.84 6472.97C7018.37 6507.11 6959.62 6553.8 6516.06 6616.5C6240.67 6655.52 5912.41 6687.58 5673 6710.57L5613.52 6716.14C5570.19 6720.32 5531.27 6722.41 5496.02 6722.41C5361.63 6722.41 5283.05 6691.76 5262.49 6631.83C5225.04 6523.83 5397.62 6351.04 5586.35 6245.82ZM6511.65 6596.3C6947.13 6534.29 6995.6 6489 6996.34 6472.28C6997.07 6463.91 6981.65 6433.26 6769.42 6395.63L6767.21 6394.93C6767.1 6394.9 6766.45 6394.66 6765.28 6394.24C6743.39 6386.31 6540.11 6312.71 6303.09 6260.46C6174.58 6231.89 6021.09 6206.81 5881.56 6206.81C5772.14 6206.81 5670.8 6222.83 5596.63 6263.94C5503.36 6316.2 5415.97 6383.79 5356.49 6449.98C5294.07 6520.35 5267.63 6582.37 5282.32 6625.57C5305.08 6689.67 5418.18 6714.06 5609.85 6695.24L5670.07 6690.37C5687.76 6688.61 5705.93 6686.82 5724.53 6684.99C5957.59 6662 6257.3 6632.44 6511.65 6596.3Z" fill="#848484"/>
<path fill-rule="evenodd" clip-rule="evenodd" d="M5766.83 1868.31C5760.74 1815.95 5843.71 1754.42 6012.68 1684.39C6123.8 1638.58 6255.47 1652.98 6348.33 1721.7C6421.4 1776.02 6500.56 1853.25 6460.98 1917.39C6430.53 1967.13 6333.87 1993.31 6205.24 1993.31C6119.23 1993.31 6018.76 1981.53 5913.73 1957.32C5818.59 1935.72 5770.64 1906.27 5766.83 1868.31ZM5919.06 1938.34C6161.85 1994.63 6395.52 1980.89 6440.43 1908.24C6466.3 1867.01 6429.01 1807.45 6333.11 1736.76C6279.83 1698.15 6213.61 1677.86 6146.63 1677.86C6104.01 1677.86 6061.39 1685.71 6021.81 1702.07C5867.3 1766.21 5784.34 1824.46 5788.9 1866.35C5791.95 1894.49 5836.85 1919.36 5919.06 1938.34Z" fill="#848484"/>
<path d="M8088.98 9494.95C7704.89 9449.7 7479.29 9146.7 7194.72 8762.8C7115.1 8655.86 7032.53 8544.8 6939.64 8429.63C6706.68 8141.02 6445.7 7967.58 6164.81 7914.11C5845.59 7853.79 5494.67 7947.02 5122.37 8191.07C4713.21 8459.11 4121.21 8890.31 3613.26 9290.66C3470.98 9403.09 3285.2 9552.53 3103.1 9707.47H3135.54C3280.04 9585.44 3444.44 9451.08 3627.27 9306.43C4134.48 8906.76 4725.74 8475.56 5134.17 8208.21C5827.9 7753.7 6429.48 7832.53 6921.21 8442.66C7013.37 8557.14 7095.93 8668.2 7175.56 8775.14C7463.81 9163.15 7691.62 9468.9 8085.3 9515.52C8364.71 9548.42 8524.69 9612.86 8563.02 9707.47H8586.61C8550.49 9601.21 8383.14 9529.91 8088.98 9494.95Z" fill="#848484"/>
<path d="M6006.89 8705.61C5868.36 8649.12 5726.16 8655.92 5583.97 8725.35C5231.41 8896.86 4911.83 9099.68 4634.04 9329.05C4463.26 9469.93 4334.26 9599.25 4238.97 9707.47H4268.29C4485.25 9464.49 4904.5 9078.58 5593.49 8743.04C5729.83 8677.02 5865.42 8670.22 5997.36 8723.98C6263.43 8832.2 6471.59 9165.7 6599.12 9427.06C6648.23 9526.43 6689.28 9623.75 6722.26 9707.47H6745.72C6712 9621.71 6670.22 9521.66 6619.65 9418.89C6432.01 9034.34 6225.31 8794.09 6006.89 8705.61Z" fill="#848484"/>
<path opacity="0.459984" d="M8981.21 5474.62C9002.4 5479.4 9022.07 5481.45 9040.99 5481.45C9142.4 5481.45 9213.54 5416.54 9240.02 5346.84C9271.81 5261.43 9246.83 5146.64 9116.67 5097.44C8906.29 5017.5 8758.72 4993.58 8676.99 5025.7C8639.91 5040.05 8622.5 5074.21 8626.29 5122.04C8631.58 5182.85 8671.69 5258.7 8733.75 5325.66C8803.37 5400.82 8891.15 5453.43 8981.21 5474.62Z" fill="#848484" stroke="#575757" stroke-width="5"/>
<path fill-rule="evenodd" clip-rule="evenodd" d="M2530.75 7287.71C2503.51 7237.89 2508.18 7165.93 2584.45 7125.8C2699.63 7065.6 2855.28 7093.28 2916.76 7140.33C2943.22 7160.39 2952.56 7183.92 2942.44 7206.06C2922.21 7253.11 2844.38 7301.54 2712.08 7349.29C2692.63 7356.21 2673.17 7359.67 2655.27 7359.67C2597.68 7359.67 2552.54 7326.45 2530.75 7287.71ZM2703.52 7329.91C2828.04 7284.93 2903.53 7239.26 2921.43 7198.44C2929.21 7181.14 2915.2 7165.92 2901.19 7156.23C2868.51 7131.33 2803.91 7112.64 2735.43 7112.64C2687.96 7112.64 2638.93 7121.64 2596.13 7143.78C2532.31 7176.99 2527.64 7235.11 2551.77 7278.01C2575.89 7320.91 2633.48 7355.51 2703.52 7329.91Z" fill="#848484"/>
<path fill-rule="evenodd" clip-rule="evenodd" d="M3765.94 9009.47C3737.13 9076.12 3424.67 9221.54 3321.25 9259.91C3299.09 9268.66 3278.41 9272.03 3257.73 9271.36C3194.2 9271.36 3144.71 9234.33 3120.33 9189.89C3089.3 9133.34 3095.21 9051.88 3179.42 9006.77C3327.16 8927.33 3682.47 8914.54 3753.39 8969.75C3768.16 8980.52 3772.59 8994.66 3765.94 9009.47ZM3190.5 9024.26C3118.11 9063.31 3112.94 9131.3 3140.27 9181.12C3167.61 9230.94 3233.35 9271.34 3312.39 9241.04C3443.14 9191.89 3721.62 9054.55 3744.52 9002.04C3746.74 8997.33 3747.48 8991.94 3738.61 8985.21C3675.08 8936.07 3325.68 8951.55 3190.5 9024.26Z" fill="#848484"/>
<path d="M670.444 528.339C794.169 456.149 752.927 226.573 712.449 81.5439H688.773C699.466 117.964 709.394 160.237 717.795 204.461C737.652 316.973 743.762 462.002 657.46 512.73C556.647 571.262 351.966 494.52 48 284.455V309.819C282.467 470.457 460.417 551.101 579.559 551.101C614.691 550.451 645.241 543.297 670.444 528.339Z" fill="#848484"/>
<path fill-rule="evenodd" clip-rule="evenodd" d="M5006.13 5112.52C4899.38 5112.52 4785.36 5102.75 4704.02 5074.73C4587.83 5034.98 4582.02 4975.69 4598 4932.69C4614.7 4886.43 4648.83 4852.55 4700.39 4832.36C4792.62 4796.52 4937.87 4804.99 5131.77 4858.42C5274.83 4898.16 5393.2 4948.33 5394.66 4948.98C5455.66 4976.35 5457.84 5002.41 5449.85 5019.35C5425.88 5068.21 5274.83 5096.88 5141.93 5107.31C5100.54 5110.56 5054.06 5112.52 5006.13 5112.52ZM4709.11 4849.95C4663.36 4867.54 4632.86 4897.51 4618.33 4938.56C4600.18 4989.38 4631.4 5029.12 4712.74 5056.49C4808.6 5089.06 4972.73 5100.79 5140.48 5087.76C5295.17 5075.38 5414.27 5044.11 5430.24 5011.53C5438.23 4994.59 5409.91 4977.65 5385.22 4966.57C5377.95 4963.32 5062.78 4830.4 4836.2 4830.4C4788.99 4830.4 4745.42 4835.61 4709.11 4849.95Z" fill="#848484"/>
<path d="M8995.05 9056.47C8607.58 8991.1 8561.34 8746.63 8502.64 8436.8C8436.59 8090.87 8355.13 7660.51 7762.19 7317.3C7464.98 7145.7 7180.25 7038.11 6891.11 6988.4C6632.8 6944.14 6375.95 6946.86 6107.36 6997.26C5608.35 7091.23 5137.22 7341.82 4680.77 7583.56C4253.67 7810.32 3811.89 8045.25 3336.36 8161.01C3080.98 8223.66 2837.35 8246.81 2591.51 8233.19C2315.58 8217.53 2044.06 8155.56 1762.26 8043.21C1269.85 7847.09 780.378 7778.99 307.781 7840.28C220.454 7851.86 133.86 7867.52 48 7887.95V7909.06C135.328 7888.63 222.655 7872.28 311.451 7860.71C780.378 7799.42 1265.45 7867.52 1754.19 8061.59C2101.3 8199.83 2422.72 8257.03 2725.8 8257.03C3457.45 8257.03 4081.95 7925.4 4691.78 7601.94C5167.31 7349.31 5615.69 7110.97 6111.77 7017.68C6377.42 6967.29 6631.33 6964.57 6886.71 7008.83C7173.64 7057.86 7456.17 7164.77 7750.44 7335.01C8010.96 7485.5 8335.32 7672.76 8481.35 8440.2C8511.44 8600.23 8537.86 8738.46 8607.58 8849.46C8684.63 8972.71 8807.18 9044.89 8991.38 9076.22C9536.62 9168.83 9860.98 9315.23 10011.4 9537.22C10047.4 9589.66 10073.8 9646.86 10091.4 9707.46H10114.2C10095.8 9642.77 10068.7 9582.85 10029.8 9526.33C9875.66 9299.57 9546.9 9149.76 8995.05 9056.47Z" fill="#848484"/>
<path d="M8569.18 9282.31C8107.61 9218.67 8064.31 9090.72 7970.38 8811.8C7888.19 8568.77 7764.18 8200.49 7279.12 7666.35C6626.75 6947.39 5934.75 7396.91 5133.41 7917.51C4321.07 8445.56 3400.12 9043.33 2275.89 8612.77C1845.14 8447.59 1410.71 8366.35 983.628 8369.73C665.881 8372.44 351.07 8422.54 48 8518.67V8540.33C351.07 8443.52 665.147 8393.43 983.628 8390.72C1407.78 8386.66 1839.27 8468.57 2267.09 8632.4C2773.43 8826.7 3284.9 8830.08 3829.4 8643.91C4305.66 8480.76 4732.74 8203.2 5145.89 7935.11C5542.15 7677.86 5916.4 7434.82 6266.44 7348.16C6653.16 7252.03 6969.44 7357.64 7262.24 7680.56C7744.36 8212 7867.64 8577.57 7949.1 8819.25C8043.03 9098.17 8090.73 9238.3 8566.25 9303.97C8844.37 9342.56 9018.28 9437.34 9083.59 9585.6C9099.74 9622.83 9109.28 9663.45 9112.95 9707.46H9134.96C9132.03 9660.74 9121.75 9617.42 9104.14 9578.15C9035.16 9421.09 8855.37 9322.25 8569.18 9282.31Z" fill="#848484"/>
<path d="M6253.8 8356.61C6050.21 8230.53 5777.04 8234.62 5442.37 8370.93C5176.53 8478.61 4871.14 8669.45 4534.27 8936.62C4190.07 9210.61 3882.49 9510.49 3690.62 9707.46H3719.91C3911.78 9510.49 4212.04 9218.78 4548.18 8951.61C4883.59 8685.13 5186.78 8495.65 5450.42 8388.65C5777.78 8255.74 6043.62 8250.29 6240.61 8372.97C6698.32 8657.18 6941.46 9137 7156.03 9560.24C7181.67 9610 7205.83 9659.07 7230.73 9706.78H7254.9C7228.54 9656.34 7202.17 9604.55 7175.81 9551.38C6961.23 9126.09 6716.63 8643.55 6253.8 8356.61Z" fill="#848484"/>
<path d="M5709.04 9082.45C5615.21 9020.08 5493.94 9021.44 5348.86 9086.51C5234.81 9138.03 5105.6 9228.87 4964.85 9356.99C4830.59 9479.69 4710.05 9613.24 4630.65 9707.46H4658.8C4884.01 9443.76 5400.1 8902.13 5696.05 9098.72C5887.33 9226.16 5999.21 9479.01 6095.93 9707.46H6119.03C6020.86 9474.95 5907.54 9214.64 5709.04 9082.45Z" fill="#848484"/>
<path d="M2076.84 9073.91C1889.08 9029.85 1694.74 8984.45 1520.13 8930.38C1086.9 8794.85 584.982 8909.01 240.144 9028.51C172.2 9051.88 107.908 9076.58 48 9101.28V9123.31C110.1 9097.94 177.314 9071.91 248.181 9047.21C589.365 8929.04 1086.16 8816.22 1512.83 8949.74C1687.44 9004.48 1882.5 9049.88 2071 9093.94C2494.74 9192.74 2895.1 9286.21 2922.86 9455.78C2934.55 9527.21 2880.49 9610.66 2759.21 9707.46H2791.36C2906.06 9610.66 2956.47 9526.54 2944.78 9452.44C2914.09 9269.52 2526.15 9178.72 2076.84 9073.91Z" fill="#848484"/>
<path d="M1823.01 9355.16C1676.45 9331.67 1498.06 9333.05 1333.73 9359.3C1029.51 9407.66 434.387 9562.4 48 9666.7V9688.12C434.387 9583.81 1033.21 9428.38 1338.18 9379.34C1500.28 9353.78 1675.71 9351.71 1820.05 9375.19C2028.79 9409.04 2102.07 9480.19 2127.23 9534.76C2150.18 9583.81 2144.26 9641.84 2110.21 9707.46H2135.38C2167.94 9639.76 2171.65 9578.97 2147.22 9526.48C2097.63 9420.09 1943.66 9374.5 1823.01 9355.16Z" fill="#848484"/>
<path d="M946.969 5550.57C1277.59 5758.55 1493.37 6056.84 1682.82 6320.24C1897.87 6618.53 2084.4 6876.45 2375.52 6918.19C2402.58 6922.29 2430.38 6923.66 2458.17 6923.66C2682.73 6923.66 2949.72 6802.56 3288.38 6547.38C3542.2 6355.82 3753.6 6182.04 3940.12 6028.11C4333.65 5703.14 4618.19 5468.48 4932.72 5392.54C5253.83 5314.54 5606.39 5396.64 6149.14 5675.09C6592.41 5902.91 7121.26 6059.58 7598.9 6104.73C7821.27 6125.94 8023.15 6121.84 8183.34 6091.73C8352.31 6060.26 8470.81 6003.48 8534.44 5922.07C8621.49 5810.55 8642.7 5603.25 8246.98 5248.18C7773.72 4823.32 7235.36 4772.01 6665.55 4717.97C6288.12 4682.39 5897.52 4644.76 5503.26 4496.3C5057.06 4328.69 4670.12 4037.24 4319.75 3606.91C4060.81 3288.78 3758.72 3138.27 3444.92 3171.79C3231.33 3194.37 3021.4 3299.73 2820.98 3483.76C2619.83 3669.85 2438.42 3926.41 2283.35 4246.59C2167.78 4483.99 2040.51 4605.77 1892.02 4618.08C1570.91 4644.76 1199.32 4139.86 840.907 3651.38C661.698 3407.14 476.638 3155.37 300.355 2974.76C208.922 2879.66 125.535 2810.56 48 2764.72V2790.04C294.503 2941.92 562.219 3305.88 823.352 3661.64C1003.29 3906.57 1189.82 4160.39 1369.02 4345.11C1560.67 4542.14 1724.52 4638.6 1868.61 4638.6C1877.39 4638.6 1886.17 4637.92 1894.95 4637.24C2051.48 4624.24 2185.34 4499.04 2303.83 4254.11C2458.17 3935.98 2637.38 3681.48 2837.07 3497.45C3033.84 3316.15 3239.38 3212.84 3447.84 3190.95C3752.86 3158.79 4049.11 3306.57 4302.92 3618.54C4655.49 4052.29 5046.09 4345.11 5495.21 4514.09C5892.4 4663.92 6284.46 4700.86 6663.36 4737.12C7229.51 4791.17 7764.21 4841.8 8232.35 5261.86C8617.1 5607.36 8599.54 5804.39 8517.62 5909.07C8397.66 6061.63 8055.33 6126.63 7601.83 6083.52C7127.11 6038.37 6601.18 5882.39 6160.11 5655.93C5612.25 5374.75 5255.29 5292.65 4927.6 5372.01C4607.95 5449.32 4321.94 5685.35 3926.22 6012.37C3739.7 6166.31 3529.04 6340.08 3275.22 6530.96C2899.25 6814.19 2614.71 6930.5 2379.18 6896.98C2097.56 6857.3 1913.96 6602.79 1701.11 6307.93C1510.2 6043.16 1293.68 5743.5 959.404 5532.79C682.179 5358.33 418.121 5270.76 171.617 5270.76C129.924 5270.76 88.962 5273.49 48 5278.28V5298.81C325.225 5265.28 626.588 5348.75 946.969 5550.57Z" fill="#848484"/>
<path d="M460.257 7585.53C800.498 7590.35 1181.16 7654.42 1516.99 7710.22C1998.32 7790.83 2377.51 7854.21 2424.54 7708.16C2495.09 7489.08 2265.81 7307.9 1885.15 7008.22C1612.52 6793.28 1272.28 6525.98 908.523 6141.57C635.154 5853.6 362.521 5722.71 99.4403 5754.4C83.2734 5756.46 66.3715 5759.22 48 5762.66V5784.02C65.6367 5780.57 84.0082 5777.13 102.38 5775.06C358.112 5744.75 623.397 5872.89 892.356 6156.03C1257.58 6541.82 1597.82 6809.81 1871.19 7025.44C2244.5 7319.61 2470.1 7497.35 2403.97 7703.33C2362.81 7831.47 1972.6 7766.03 1521.4 7690.93C1034.18 7608.95 461.727 7513.19 48 7596.55V7617.91C165.578 7593.8 302.262 7583.46 460.257 7585.53Z" fill="#848484"/>
<path d="M1445.22 7493.84C1638.35 7493.84 1746.8 7461.06 1767.6 7394.8C1813.65 7250.42 1429.62 6990.27 1195.64 6847.99C865.087 6646.42 471.4 6456.71 259.7 6396.03C189.133 6375.8 117.824 6361.85 48 6353.48V6374.41C115.595 6382.78 184.676 6396.73 253.015 6416.26C463.229 6476.24 854.688 6664.55 1183.01 6865.42C1565.55 7099.07 1775.77 7294.36 1745.31 7388.52C1715.6 7480.59 1451.16 7497.32 1000.28 7435.95C635.56 7387.13 254.5 7301.34 48.7428 7246.94V7268.56C256.729 7323.66 635.56 7408.05 998.049 7457.57C1178.55 7481.98 1327.86 7493.84 1445.22 7493.84Z" fill="#848484"/>
<path d="M485.884 7091.35C574.495 7091.35 623.969 7075.26 633.569 7043.07C654.245 6978.69 506.56 6871.62 378.813 6793.24C268.788 6725.37 143.256 6660.98 48 6621.8V6644.89C141.041 6684.08 261.404 6746.36 366.998 6811.44C530.928 6912.21 624.708 6998.98 612.155 7037.47C592.217 7099.75 296.11 7064.76 48 7012.28V7033.27C122.581 7048.67 206.022 7064.06 287.249 7075.26C368.475 7085.76 434.195 7091.35 485.884 7091.35Z" fill="#848484"/>
<path fill-rule="evenodd" clip-rule="evenodd" d="M2541.12 6554.72C2519.97 6554.72 2499.54 6552.66 2479.85 6547.86C2301.13 6506.74 2158.88 6387.46 2068.43 6204.44C1977.24 6017.99 1946.6 5777.39 1980.89 5507.99C2012.26 5265.33 2103.44 5024.73 2246.42 4812.23C2754.86 4054.78 3177.23 3639.38 3501.84 3577.68C3606.16 3557.81 3701.72 3574.94 3784.15 3629.1C4093.29 3830.89 4294.95 4027.33 4472.79 4200.57L4479.34 4206.95L4480.93 4208.5C4755.92 4476.48 4973.38 4688.4 5449.54 4810.86C5750.81 4888.32 5893.06 4959.61 5883.58 5029.53C5876.28 5083.68 5774.16 5126.87 5579.39 5158.4C5390.45 5188.56 5117.63 5207.07 4790.82 5211.18C4544.26 5214.61 4288.22 5304.41 4007.37 5487.43C3762.26 5647.83 3530.29 5856.9 3325.31 6041.98C3022.58 6315.49 2757.78 6554.72 2541.12 6554.72ZM2265.39 4823.18C2124.6 5032.94 2034.14 5270.8 2003.5 5510.72C1969.95 5776 1999.86 6013.18 2089.58 6196.2C2176.39 6373.74 2313.53 6488.9 2485.69 6528.66C2503.92 6532.77 2522.89 6534.82 2541.86 6534.82C2749.02 6534.82 3010.89 6298.35 3309.96 6028.28L3309.99 6028.26C3514.98 5842.49 3747.68 5632.73 3994.97 5471.65C4279.47 5286.57 4539.89 5194.71 4790.83 5191.29C5116.9 5187.17 5388.27 5168.67 5575.74 5138.5C5817.2 5099.43 5858.78 5052.13 5862.42 5027.46C5872.64 4949.31 5573.55 4863.63 5444.44 4830.72C4961.52 4705.97 4741.95 4492.1 4464.75 4221.33L4461.75 4218.41C4283.77 4045.01 4082.22 3848.67 3772.48 3646.22C3715.58 3609.2 3652.85 3590.69 3584.28 3590.69C3559.47 3590.69 3533.21 3593.44 3506.95 3598.23C3188.9 3658.56 2770.91 4070.53 2265.39 4823.18Z" fill="#848484"/>
<path fill-rule="evenodd" clip-rule="evenodd" d="M7730.09 5812.22C7388 5765.88 6997.77 5688.87 6767.28 5636.4C6382.16 5549.17 6217.31 5472.16 6199.07 5369.94C6182.3 5277.94 6288.79 5166.86 6533.14 5020.34C6666.62 4940.6 6840.22 4923.57 7051.02 4971.27C7218.05 5008.75 7408.43 5086.44 7617.04 5202.29C7964.23 5395.15 8247.97 5630.94 8261.83 5642.53C8363.95 5710 8404.79 5760.42 8386.56 5797.91C8369.05 5832.66 8299.03 5850.38 8173.57 5850.38C8066.35 5850.38 7919.01 5837.43 7730.09 5812.22ZM6831.47 4965.16C6720.6 4965.16 6625.05 4989.69 6544.81 5037.39C6312.13 5177.1 6206.37 5284.77 6220.23 5365.18C6240.65 5480.35 6510.53 5556.68 6771.66 5615.97C7404.78 5759.76 8311.43 5900.15 8365.4 5789.06C8372.7 5774.07 8367.59 5737.27 8247.97 5658.22L8247.24 5657.54C8247.07 5657.42 8245.97 5656.52 8243.97 5654.88C8211.15 5627.99 7937.42 5403.69 7605.36 5219.35C7398.94 5104.86 7210.76 5027.85 7045.91 4991.05C6969.32 4974.01 6897.84 4965.16 6831.47 4965.16Z" fill="#848484"/>
<path fill-rule="evenodd" clip-rule="evenodd" d="M7434.24 5533.76C7308.16 5515.46 7163.66 5485.19 7078.66 5464.78C6956.12 5435.22 6873.24 5404.96 6864.03 5354.29C6856.95 5314.87 6895.91 5270.53 6990.12 5210.71C7080.78 5152.3 7218.2 5176.22 7396.7 5281.8C7523.5 5356.4 7627.62 5447.89 7635.41 5454.93C7663.75 5474.64 7694.21 5500.68 7683.58 5523.9C7677.91 5536.57 7661.62 5548.54 7599.29 5548.54C7562.45 5548.54 7510.04 5544.31 7434.24 5533.76ZM7104.16 5201.58C7066.62 5201.58 7031.91 5210.03 7002.16 5229.03C6919.99 5281.11 6880.33 5322.64 6884.58 5350.79C6891.66 5392.31 6988.7 5421.17 7082.91 5443.69C7399.54 5520.4 7650.29 5544.33 7663.75 5515.48C7663.75 5515.48 7668 5504.92 7622.66 5472.55L7621.96 5471.84C7621.83 5471.74 7621.32 5471.3 7620.45 5470.54C7596.97 5450.17 7310.4 5201.58 7104.16 5201.58Z" fill="#848484"/>
<path d="M9154.94 1784.48C8976.96 1845.78 8871.49 2005.58 8724.27 2227.37C8653.22 2334.82 8571.92 2456.74 8470.11 2586.23C8139.05 3004.33 7805.79 2850.73 7253.53 2596.57C6968.61 2465.01 6613.38 2301.76 6174.65 2183.29C5536.69 2011.09 5111.14 2020.04 4873.83 2210.84C4656.3 2385.8 4587.45 2708.84 4656.3 3227.5C4716.36 3677.29 5075.25 4023.75 5722.73 4257.94C6332.85 4478.36 7055.04 4541.04 7430.78 4559.63C8084.12 4590.63 8657.62 4685.68 9136.63 4840.66C9518.97 4964.65 9841.97 5127.2 10096.1 5324.2C10179.6 5388.94 10250.7 5453 10310 5514.99V5484.69C10253.6 5428.2 10188.4 5368.97 10112.2 5309.73C9855.89 5110.67 9530.69 4946.74 9145.42 4822.06C8664.21 4666.4 8087.78 4571.34 7432.25 4539.66C7057.24 4521.75 6337.98 4459.07 5730.79 4239.34C5091.37 4008.6 4736.87 3667.64 4678.27 3226.13C4610.16 2715.04 4676.81 2398.19 4888.48 2228.06C5119.93 2042.09 5538.89 2033.82 6168.79 2204.64C6606.05 2323.11 6959.82 2485.67 7244.01 2616.54C7524.53 2746.04 7746.46 2847.98 7944.22 2865.89C8158.83 2885.17 8326.55 2803.21 8487.69 2600.01C8590.23 2470.52 8671.53 2347.91 8743.31 2239.77C8887.6 2021.42 8992.34 1863.69 9163 1805.14C9343.18 1743.15 9587.08 1795.5 9979.67 1980.09C10099.1 2036.58 10208.9 2098.57 10310 2164V2137.83C10211.9 2074.46 10104.9 2015.22 9989.19 1960.81C9590.01 1773.46 9340.98 1720.42 9154.94 1784.48Z" fill="#848484"/>
<path d="M9588.29 2429.56C9408.04 2434.41 9255.64 2515.36 9135.48 2670.36C9026.3 2810.82 8949.37 2938.82 8880.49 3050.92C8659.22 3414.18 8558.1 3580.25 7880.35 3329.07C7682.52 3255.73 7449.52 3149.17 7202.6 3036.39C6522.65 2725.02 5751.85 2372.13 5343.73 2543.73C5220.64 2594.93 5136.38 2693.19 5093.15 2834.34C5034.53 3025.32 5057.24 3198.3 5162.02 3348.45C5314.42 3566.41 5635.35 3739.39 6142.38 3877.78C6536.57 3985.72 7044.34 4072.21 7738.94 4151.09C8421.09 4228.59 9127.42 4434.78 9726.77 4730.93C9950.24 4841.64 10148.8 4960.65 10310 5078.97V5051.29C10151 4936.43 9957.57 4821.57 9736.29 4712.25C9134.74 4414.71 8425.48 4207.83 7740.41 4130.33C7046.54 4051.45 6540.24 3964.96 6147.51 3857.02C5645.61 3720.02 5329.08 3549.11 5179.61 3335.99C5078.49 3191.38 5056.51 3024.62 5112.93 2839.19C5155.43 2702.18 5233.09 2611.54 5351.06 2562.41C5750.38 2394.97 6516.06 2745.78 7191.61 3055.07C7438.53 3168.55 7672.26 3275.1 7870.83 3348.45C8205.67 3472.3 8411.56 3499.98 8559.57 3439.78C8702.45 3381.66 8784.51 3247.43 8897.35 3061.3C8965.49 2949.2 9042.42 2822.58 9150.86 2682.81C9266.63 2533.35 9413.17 2455.16 9586.82 2450.32C9831.54 2444.09 10097.5 2585.25 10309.3 2735.4V2709.1C9976.62 2473.85 9736.29 2425.41 9588.29 2429.56Z" fill="#848484"/>
<path d="M9549.33 2936.92C9419.61 2957.36 9323.79 3051.4 9264.08 3216.31C9085.71 3707.63 8668.52 3674.24 8392.11 3652.43C8241.75 3640.17 8132.66 3631.99 8119.39 3711.72C8102.44 3812.57 8162.14 3890.26 8309.56 3954.99C8440.76 4012.91 8629.45 4057.89 8847.63 4109C9304.62 4216.66 9889.86 4355 10309.3 4710.03V4682.09C9887.65 4333.19 9306.83 4196.22 8852.79 4089.24C8419.39 3987.02 8106.86 3913.42 8140.77 3714.44C8150.35 3656.52 8237.33 3660.61 8389.9 3672.88C8531.42 3683.78 8706.85 3698.09 8872.69 3646.3C9068.76 3584.97 9203.64 3446.64 9284.72 3223.13C9341.48 3066.4 9432.14 2976.45 9553.02 2957.36C9780.78 2920.57 10080.8 3132.49 10310 3335.56V3306.94C10298.2 3296.04 10285.7 3285.82 10273.1 3274.92C9975.37 3021.42 9732.13 2907.62 9549.33 2936.92Z" fill="#848484"/>
<path d="M9852.75 3460.55C9738.25 3420.54 9641.6 3428.4 9567.25 3484.84C9506.28 3530.57 9480.26 3595.59 9489.18 3677.75C9521.15 3962.12 9972.45 4380.82 10310 4575.87V4550.15C10160.6 4462.27 9994.02 4333.66 9851.26 4194.33C9647.55 3994.99 9526.36 3810.65 9510.74 3674.18C9502.56 3600.59 9525.61 3542 9580.63 3500.56C9780.63 3349.8 10110 3614.16 10310 3809.94V3779.21C10263.9 3734.2 10211.1 3687.04 10155.4 3642.03C10044.6 3553.43 9942.71 3491.99 9852.75 3460.55Z" fill="#848484"/>
<path fill-rule="evenodd" clip-rule="evenodd" d="M7776.84 3699.42C7779.37 3701.09 7780.77 3702.02 7781.01 3702.17C7868.07 3762.56 7898.8 3812.1 7872.46 3849.43C7843.2 3889.47 7748.82 3905.08 7624.45 3905.08C7453.99 3905.08 7225.73 3875.89 7025.27 3838.57C6537.3 3748.31 6072.01 3594.94 5780.83 3428.68C5453.08 3241.38 5341.87 3038.47 5459.66 2841.67C5491.12 2788.74 5543.79 2754.81 5615.49 2739.88C5846.68 2692.37 6281.97 2839.64 6908.22 3178.95C7348.31 3416.44 7732.76 3670.32 7776.84 3699.42ZM7582.75 3883.37C7785.4 3888.12 7839.54 3856.22 7853.44 3837.22C7877.58 3804.65 7820.52 3754.43 7767.85 3718.46C7748.82 3705.57 6314.9 2751.42 5708.41 2751.42C5676.22 2751.42 5646.95 2754.13 5619.88 2759.56C5554.77 2773.14 5507.22 2803.67 5478.68 2851.18C5420.16 2948.9 5420.89 3047.98 5481.61 3146.38C5536.48 3235.96 5641.1 3324.86 5791.81 3411.04C6080.79 3575.95 6543.16 3728.64 7028.93 3818.22C7237.44 3856.9 7434.24 3879.97 7582.75 3883.37Z" fill="#848484"/>
<path fill-rule="evenodd" clip-rule="evenodd" d="M7056.78 3495.45C7062.05 3498.39 7064.97 3500.03 7065.3 3500.17C7076.22 3507.39 7110.44 3530.34 7093.69 3551.98C7084.23 3565.1 7055.1 3569.69 7015.79 3569.69C6908.04 3569.69 6725.29 3531.65 6678.7 3521.81C6436.25 3469.35 6211.28 3393.93 6077.32 3319.83C5942.62 3245.06 5896.03 3172.27 5938.26 3103.41C5948.45 3087.01 5965.92 3075.87 5989.22 3070.62C6083.87 3048.98 6294.28 3114.56 6613.9 3266.05C6824.12 3365.68 7014.81 3472.04 7056.78 3495.45ZM6683.79 3502.15C6931.33 3555.27 7063.84 3556.58 7076.22 3540.19C7077.67 3539.53 7075.49 3531.66 7052.19 3515.92C7031.81 3504.12 6287.72 3085.71 6030.72 3085.71C6016.88 3085.71 6005.24 3087.02 5994.31 3089.65C5976.11 3093.58 5964.46 3101.45 5957.18 3112.6C5921.51 3170.31 5965.19 3233.92 6088.24 3302.13C6220.01 3375.58 6442.8 3450.34 6683.79 3502.15Z" fill="#848484"/>
<path fill-rule="evenodd" clip-rule="evenodd" d="M2692.17 6044.32C2619.33 6073.39 2559.6 6085.16 2510.79 6085.16C2411.72 6085.16 2357.82 6036.71 2327.23 5985.49C2132.74 5658.12 2571.98 4604.01 3169.29 4192.89C3347.75 4070.38 3508.01 4020.55 3644.95 4045.47C3757.86 4066.23 3854.74 4136.14 3933.41 4253.8C4010.62 4368.69 4047.77 4501.58 4042.67 4638.62C4037.57 4774.97 3990.22 4905.78 3906.45 5016.52L3883.87 5046.28L3882.56 5048.02C3604.71 5415 3317.63 5794.17 2692.17 6044.32ZM3182.4 4210.89C2912.15 4397.07 2646.28 4741.06 2471.46 5130.72C2307.56 5495.47 2258.76 5827.69 2346.17 5975.81C2405.17 6074.78 2518.07 6091.39 2683.43 6024.95C3304.05 5776.48 3589.59 5399.27 3865.66 5033.83L3888.24 5004.07C3969.83 4896.79 4015.72 4770.13 4020.82 4637.93C4025.92 4505.04 3989.49 4376.31 3915.19 4265.57C3840.17 4153.45 3747.66 4086.31 3641.31 4066.93C3619.45 4062.78 3596.87 4060.7 3574.29 4060.7C3458.47 4060.7 3327.36 4111.23 3182.4 4210.89Z" fill="#848484"/>
<path fill-rule="evenodd" clip-rule="evenodd" d="M2919.98 5589.52C2873.67 5607.84 2835.58 5615.59 2804.96 5615.59C2745.96 5615.59 2713.85 5588.11 2696.67 5559.22C2645.14 5473.25 2676.51 5291.44 2778.08 5084.97C2884.13 4870.75 3043.2 4676.25 3204.52 4566.32C3311.32 4493.74 3406.91 4464.15 3489.81 4478.94C3557.77 4490.92 3616.77 4532.5 3663.83 4602.97C3757.18 4742.49 3751.2 4920.07 3647.39 5056.08C3482.34 5272.41 3302.36 5437.31 2919.98 5589.52ZM3217.96 4583.94C3060.38 4691.76 2903.54 4882.72 2798.99 5094.13C2701.15 5290.73 2669.04 5469.72 2716.83 5549.35C2748.2 5602.2 2813.92 5609.25 2911.76 5570.49C3289.66 5420.39 3466.66 5257.61 3629.47 5044.09C3728.05 4915.14 3734.03 4746.72 3645.15 4614.95C3601.09 4550.11 3548.06 4511.36 3486.08 4500.08C3473.38 4497.97 3460.68 4496.56 3447.24 4496.56C3379.28 4496.56 3303.1 4526.16 3217.96 4583.94Z" fill="#848484"/>
<path d="M9985.24 5613.21C9797.88 5508.91 9611.26 5486.8 9460.63 5551.04C9236.54 5645.67 9133.67 5910.91 9221.84 6167.86C9244.62 6234.17 9230.66 6287.35 9180.7 6328.8C9022.73 6458.65 8512.08 6469.7 7778.8 6358.5C7145.45 6262.49 6462.88 6089.11 6118.28 5935.77C5832.47 5808.68 5601.76 5787.96 5432.03 5872.92C5281.41 5948.21 5182.22 6109.84 5144.74 6339.16C5088.9 6682.45 4321.1 7009.85 3703.91 7272.32C3266 7458.82 2919.94 7605.94 2873.65 7726.82C2865.57 7747.54 2866.3 7766.88 2875.85 7784.84C2917 7864.97 3017.66 7878.78 3203.55 7829.74C3374.74 7784.15 3617.21 7686.76 3923.6 7563.12C4398.98 7371.1 5050.7 7107.93 5886.84 6857.2C6572.35 6652.05 7168.23 6675.54 7657.57 6926.96C7922.81 7063.73 8152.05 7265.42 8338.68 7526.51C8498.12 7750.31 8625.23 8017.61 8705.32 8300.12C8764.1 8507.34 8892.68 8680.02 9088.12 8813.33C9246.09 8921.08 9448.88 9003.97 9689.87 9059.92C9877.97 9103.43 10091.8 9129.68 10310 9137.28V9116.56C10093.2 9108.96 9881.64 9082.71 9695.02 9039.2C9456.96 8984.63 9257.11 8902.43 9101.34 8796.06C8910.31 8665.51 8784.67 8496.98 8726.62 8293.9C8645.8 8008.64 8517.96 7739.25 8357.05 7514.08C8168.22 7249.53 7936.77 7045.77 7667.86 6907.62C7173.37 6652.75 6571.62 6629.26 5880.22 6835.79C5042.61 7086.52 4390.9 7349.69 3914.78 7542.4C3307.15 7787.6 2972.1 7922.99 2895.69 7774.48C2889.08 7761.36 2888.34 7747.54 2894.22 7732.35C2937.57 7619.76 3296.86 7466.42 3713.46 7289.59C4023.52 7157.66 4375.47 7007.78 4652.47 6848.91C4972.81 6665.18 5141.07 6498.71 5166.79 6340.54C5202.79 6118.13 5298.31 5962.02 5442.32 5889.5C5606.16 5807.3 5830.26 5828.71 6109.46 5953.04C6622.32 6180.98 7874.32 6453.13 8634.78 6453.13C8897.09 6453.13 9101.34 6420.66 9196.13 6342.61C9253.44 6295.64 9269.6 6234.17 9243.88 6159.57C9159.39 5912.98 9257.11 5658.1 9470.92 5567.62C9745.72 5451.58 10049.9 5627.02 10309.3 5901.93V5866.7C10202 5759.64 10094 5673.99 9985.24 5613.21Z" fill="#848484"/>
<path d="M9899.59 5963.32C9823.5 5941.34 9751.81 5948.89 9686.7 5985.3C9495.76 6093.13 9537.46 6290.94 9574.04 6466.08C9599.64 6587.65 9623.79 6702.35 9564.53 6766.23C9523.56 6810.19 9443.82 6828.73 9321.65 6821.86C9042.92 6806.75 8775.17 6751.12 8560.08 6706.47C8274.04 6647.41 8067.01 6604.14 7991.65 6683.12C7968.98 6707.16 7958 6733.95 7960.2 6763.48C7966.05 6856.89 8097.73 6966.1 8265.26 7104.15C8505.95 7303.34 8805.89 7551.97 8909.04 7885.77C9010 8211.33 9146.07 8533.46 9460.65 8682.5C9581.36 8739.51 9722.55 8768.36 9885.69 8768.36C10013 8768.36 10154.2 8751.19 10309.3 8716.16V8694.87C9958.11 8774.54 9681.58 8764.24 9470.16 8663.96C9163.63 8518.35 9029.02 8201.03 8929.53 7879.59C8824.18 7540.29 8522.04 7289.6 8279.16 7088.36C8116.02 6953.05 7987.27 6846.59 7981.41 6761.42C7979.95 6737.38 7988.73 6716.09 8007.75 6696.17C8074.32 6626.11 8286.48 6670.07 8555.69 6725.71C8771.51 6770.35 9040.73 6825.98 9320.92 6841.09C9450.4 6847.96 9535.27 6827.36 9581.36 6777.91C9647.2 6706.47 9622.32 6586.96 9595.99 6460.59C9558.68 6284.07 9520.63 6102.06 9698.41 6001.78C9757.66 5968.13 9823.5 5961.94 9893.74 5981.18C10017.4 6016.2 10160 6136.4 10310 6329.4V6293.69C10188.6 6143.27 10043.7 6003.84 9899.59 5963.32Z" fill="#848484"/>
<path d="M10045.6 6632.17C9940.16 6664.69 9866.48 6773.3 9862.87 6903.37C9860.71 6985.01 9843.37 7035.51 9807.98 7066.65C9731.41 7133.75 9555.88 7123.38 9236.61 7104.7L9199.05 7102.62C9075.53 7095.7 9008.35 7110.92 8985.96 7150.36C8952.01 7211.93 9035.08 7316.4 9150.65 7461.69C9253.94 7591.06 9382.52 7751.57 9454.75 7923.15C9510.37 8054.6 9605 8145.23 9735.02 8192.96C9811.59 8220.64 9895.38 8231.71 9979.17 8231.71C10097.6 8231.71 10215.4 8210.26 10310 8186.05V8163.91C10136.6 8208.88 9919.22 8237.24 9742.97 8173.59C9618.72 8128.62 9528.43 8041.45 9474.98 7915.54C9401.3 7741.19 9272 7579.3 9167.99 7449.23C9065.41 7321.24 8977.29 7210.55 9004.74 7160.74C9022.07 7129.6 9084.92 7117.84 9196.88 7124.07L9234.44 7126.14C9569.6 7145.52 9738.63 7155.2 9821.7 7082.56C9862.15 7047.27 9881.65 6991.93 9883.82 6904.06C9887.43 6782.99 9954.61 6681.98 10051.4 6652.23C10128.7 6628.71 10217.5 6650.16 10310 6711.73V6685.44C10191.5 6610.03 10099.8 6615.56 10045.6 6632.17Z" fill="#848484"/>
<path d="M9871.61 7365.75C9804.93 7437.74 9784.36 7528.76 9814.15 7622.49C9846.78 7724.37 9967.37 7782.1 10172.4 7793.65C10199.3 7795.01 10226.3 7795.69 10251.8 7795.69C10271.7 7795.69 10291.6 7795.01 10310 7794.33V7773.95C10139 7780.07 9880.83 7763.77 9834.01 7615.7C9806.35 7528.76 9825.5 7444.53 9886.51 7378.65C9971.63 7286.96 10124.1 7240.09 10309.3 7246.2V7225.83C10119.2 7221.07 9960.99 7269.98 9871.61 7365.75Z" fill="#848484"/>
<path d="M861.088 5237.08C1140.49 5344.58 1407.33 5447.92 1587.69 5447.92C1636.48 5447.92 1678.61 5440.29 1713.35 5423.65C1762.14 5400.07 1793.18 5357.76 1806.49 5298.81C1838.27 5160.1 1680.83 5026.25 1442.08 4823.74C1205.54 4623.31 881.784 4349.36 595.725 3938.79C401.324 3660.68 218.748 3481.75 48.7392 3401.99V3424.88C212.096 3504.63 388.758 3679.41 576.507 3949.88C864.784 4363.23 1189.28 4637.87 1426.55 4839C1659.39 5036.65 1813.88 5167.04 1784.31 5293.95C1771.75 5347.36 1745.14 5383.42 1702.26 5404.23C1549.26 5479.82 1218.85 5352.21 869.219 5216.97C638.597 5128.2 399.845 5035.96 192.877 4994.35C141.136 4983.94 92.3502 4977.01 48 4973.54V4994.35C90.8719 4997.81 138.179 5004.06 188.442 5014.46C393.932 5056.77 631.945 5148.31 861.088 5237.08Z" fill="#848484"/>
<path d="M722.772 4844.21C796.178 4844.21 842.762 4826.82 861.82 4792.73C908.404 4707.15 767.945 4544.02 443.264 4306.01C296.451 4199.04 143.993 4100.09 48 4039.25V4062.65C369.152 4265.23 916.874 4648.32 843.468 4783.37C827.94 4812.11 785.59 4824.82 726.301 4824.82C570.313 4824.82 293.628 4740.58 48 4650.99V4672.38C100.937 4691.77 156.698 4711.16 213.164 4729.88C441.852 4806.1 612.662 4844.21 722.772 4844.21Z" fill="#848484"/>
<path fill-rule="evenodd" clip-rule="evenodd" d="M3883.48 6468.78C3922.55 6407.64 3963.79 6352.55 4007.21 6304.18C4144.69 6149.66 4353.08 6069.04 4562.19 6087.85C4685.2 6099.27 4747.43 6139.58 4748.15 6208.78C4749.6 6437.87 3999.25 6916.22 3661.34 6949.81C3612.14 6955.18 3574.51 6957.2 3546.29 6957.2C3485.51 6957.2 3465.25 6947.12 3458.01 6932.34C3443.54 6901.44 3495.64 6857.09 3582.47 6783.19C3675.09 6704.59 3801.71 6597.1 3883.48 6468.78ZM4318.35 6637.41C4570.88 6470.79 4727.89 6306.2 4727.17 6209.45C4727.17 6152.35 4670.73 6118.09 4561.47 6108.68C4541.93 6106.66 4522.4 6105.99 4502.86 6105.99C4320.52 6105.99 4145.41 6182.58 4024.57 6316.95C3981.88 6363.97 3941.36 6419.06 3903.01 6478.86C3820.55 6608.69 3693.31 6716.75 3600.18 6795.84L3597.66 6797.97L3594.38 6800.77C3533.17 6852.97 3470.47 6906.45 3479 6923.61C3484.06 6934.35 3519.52 6943.76 3659.89 6929.65C3814.74 6914.2 4073.05 6799.32 4318.35 6637.41Z" fill="#848484"/>
<path d="M765.112 2799.9C930.261 3084.24 1107.15 3376.82 1279.64 3590.41C1469.75 3824.61 1634.9 3938.62 1785.36 3938.62C1786.83 3938.62 1788.3 3938.62 1789.77 3938.62C1939.5 3936.56 2071.62 3823.92 2193.47 3595.91C2449.63 3117.21 2752.77 2824.63 3070.59 2751.14C3287.85 2701 3510.98 2750.45 3733.39 2899.49C3904.41 3014.19 4026.25 3051.96 4104.05 3015.56C4219.29 2961.99 4225.9 2762.13 4233.23 2531.36C4241.31 2277.93 4250.12 1990.16 4412.33 1858.3C4487.93 1797.17 4589.22 1774.51 4722.07 1788.25C5069.99 1825.33 5401.02 1775.88 5679.2 1646.76C5943.44 1523.83 6148.23 1336.33 6270.8 1104.19C6387.51 883.728 6421.27 635.106 6369.89 386.484C6348.61 282.777 6312.64 181.13 6263.46 81.5439H6238.51C6410.26 420.824 6419.8 777.96 6251.72 1095.26C6131.34 1323.28 5930.23 1507.34 5670.4 1628.22C5395.88 1755.97 5068.52 1804.04 4725.01 1767.64C4587.75 1753.22 4477.65 1777.94 4398.38 1842.5C4228.83 1979.86 4220.02 2272.44 4211.21 2529.99C4204.61 2744.96 4198 2948.25 4094.51 2996.33C4024.05 3029.3 3910.28 2991.52 3745.86 2881.63C3517.59 2729.16 3288.58 2678.34 3064.72 2729.85C2740.29 2805.4 2432.01 3101.41 2173.65 3585.6C2055.47 3806.07 1929.96 3914.58 1789.77 3916.64C1788.3 3916.64 1786.83 3916.64 1785.36 3916.64C1466.08 3916.64 1115.96 3359.65 784.196 2788.23C580.88 2440.02 334.258 2199.64 48 2071.89V2094.56C325.45 2221.62 566.2 2457.88 765.112 2799.9Z" fill="#848484"/>
<path d="M1034.58 1926.23C1160.82 1926.23 1271.74 1908.97 1362.95 1873.76C1570.92 1793.68 1674.54 1630.06 1670.89 1385.67C1667.24 1146.11 1735.11 967.989 1878.13 841.65C2230.58 528.218 2989.49 582.068 3793.64 640.059C3911.85 648.344 4034.45 657.319 4154.85 664.913C4272.33 672.507 4380.33 675.959 4479.57 675.959C4932.73 675.959 5189.59 599.327 5245.78 446.754C5285.18 339.055 5219.51 208.573 5114.43 81.5439H5085.97C5193.97 207.883 5262.56 336.984 5225.35 440.54C5161.13 615.896 4802.11 684.934 4157.04 644.892C4036.64 637.298 3914.04 628.323 3795.83 620.038C2987.3 562.047 2223.29 507.507 1863.54 827.152C1716.13 958.323 1646.08 1141.27 1649.73 1387.05C1653.38 1621.78 1554.14 1779.87 1355.65 1855.81C1100.25 1953.85 685.043 1908.97 215.105 1732.93C158.917 1712.22 103.459 1689.43 48 1665.96V1688.74C100.54 1711.53 153.809 1732.93 207.078 1752.26C515.019 1866.86 801.068 1926.23 1034.58 1926.23Z" fill="#848484"/>
<path d="M617.744 1254.07C880.366 1239.08 1102.86 1110.23 1280.13 870.956L1309.32 831.417C1524.52 541.012 1632.49 395.127 1792.25 334.456C1952.01 273.784 2168.67 295.599 2600.54 339.909C2653.06 345.363 2709.24 350.817 2768.33 356.952C3280.44 408.08 3651.03 425.804 3901.25 409.443C4142.71 393.764 4279.86 348.09 4332.39 265.604C4364.48 215.158 4363.03 153.804 4336.76 81.5439H4314.15C4340.41 151.078 4343.33 209.022 4313.42 255.378C4265.27 329.684 4130.31 373.995 3899.79 388.992C3650.3 405.353 3281.17 388.31 2770.51 336.501C2711.42 330.366 2655.25 324.912 2602.73 319.458C2167.21 274.466 1949.09 251.97 1783.49 315.368C1617.9 378.767 1508.47 526.014 1291.08 819.828L1261.9 859.367C1088.27 1093.19 871.612 1219.31 616.285 1233.62C484.974 1241.12 294.573 1219.99 48 1112.28V1134.78C264.663 1228.17 438.285 1255.44 567.408 1255.44C585.646 1255.44 602.424 1254.76 617.744 1254.07Z" fill="#848484"/>
<path d="M943.992 801.863C1051.66 754.315 1125.45 673.412 1162.34 561.283C1217.31 398.058 1229.35 233.414 1220.32 81.5439H1197.73C1206.77 231.285 1194.72 393.8 1140.51 554.896C1105.12 661.347 1035.1 737.992 933.451 782.702C691.759 889.153 316.045 801.863 48 714.573V737.282C227.951 795.476 455.338 852.959 660.136 852.959C763.288 852.959 861.17 838.056 943.992 801.863Z" fill="#848484"/>
<path d="M5446.91 587.001C5302.43 854.797 4662.47 818.497 4655.18 817.812C4296.89 817.812 3964.14 793.841 3670.8 771.924C3234.44 739.734 2857.18 712.338 2578.43 780.143C2431.03 815.758 2316.46 876.714 2228.9 965.751C2134.04 1061.64 2069.82 1191.08 2031.88 1360.25C1905.64 1925.98 1575.08 1993.79 1308.74 2047.89C1148.2 2080.77 1009.56 2108.85 963.585 2243.09C921.991 2365.69 970.152 2609.51 1087.63 2864.3C1213.14 3137.57 1383.9 3349.21 1544.43 3430.02C1596.24 3456.05 1648.05 3469.06 1696.94 3469.06C1790.34 3469.06 1878.64 3422.49 1955.99 3331.4C2073.47 3193.05 2169.06 3042.37 2261.74 2896.49C2434.68 2623.9 2583.54 2388.97 2814.85 2336.24C2957.15 2304.05 3122.79 2343.77 3319.81 2459.52C3581.05 2612.25 3762.01 2660.2 3873.66 2606.09C4012.3 2538.97 4026.17 2331.44 4040.76 2110.9C4060.47 1815.03 4080.9 1508.88 4404.89 1522.58C4479.32 1525.31 4550.83 1527.37 4620.15 1527.37C5320.67 1527.37 5775.28 1371.9 5971.57 1063.69C6126.27 821.922 6086.86 530.154 6027.03 328.793C5998.57 232.222 5962.81 147.294 5931.44 81.5439H5907.36C5939.46 147.294 5976.68 235.647 6005.87 334.957C6111.67 693.16 6035.06 923.287 5952.6 1053.42C5740.98 1384.91 5219.97 1536.27 4405.62 1502.71C4250.19 1496.55 4146.57 1558.19 4088.92 1691.75C4038.57 1807.49 4028.36 1961.6 4018.87 2110.9C4005.01 2325.28 3991.14 2527.32 3863.44 2588.97C3759.1 2639.65 3585.43 2591.7 3330.76 2443.08C3127.9 2324.59 2957.15 2283.5 2809.02 2317.74C2568.94 2372.54 2417.16 2610.88 2242.03 2887.58C2150.09 3032.78 2054.5 3182.77 1937.74 3319.75C1823.91 3453.31 1694.75 3484.13 1553.19 3412.9C1397.03 3334.14 1229.2 3126.61 1105.88 2857.45C992.773 2610.88 943.153 2367.06 982.557 2250.62C1024.88 2127.34 1151.12 2101.32 1311.66 2069.13C1445.92 2041.73 1597.7 2010.91 1733.43 1913.65C1890.31 1801.33 1994.66 1621.89 2051.58 1365.05C2122.36 1046.57 2285.82 872.604 2582.08 800.69C2706.13 770.554 2851.34 759.596 3012.6 759.596C3208.17 759.596 3429.27 776.033 3667.15 793.156C3961.22 814.388 4293.97 839.044 4652.26 839.044C4652.26 839.044 4652.26 839.044 4652.99 839.044C4654.45 839.044 4819.36 849.318 4999.6 824.661C5244.78 791.786 5400.94 715.077 5465.15 597.274C5534.48 469.198 5489.96 296.603 5332.35 82.2288H5306.08C5466.61 293.863 5513.31 463.719 5446.91 587.001Z" fill="#848484"/>
<path d="M5494.21 815.238C5374.4 957.964 5012.06 1017.14 4447.36 986.509C4018.55 963.533 3621.14 896 3617.49 895.304C3615.3 894.607 3372.76 853.53 3099.54 904.355C2938.1 933.596 2797.84 988.598 2681.68 1067.97C2536.31 1166.83 2428.92 1303.29 2363.17 1473.17C2236.06 1802.48 2093.61 2027.36 1927.05 2161.04C1782.41 2277.31 1641.41 2307.94 1509.92 2329.52C1317.79 2360.85 1252.77 2477.82 1232.32 2570.42C1191.41 2751.43 1290.03 2995.81 1443.44 3093.98C1485.08 3120.43 1527.45 3133.66 1568.36 3133.66C1606.35 3133.66 1643.61 3122.52 1678.67 3099.55C1822.58 3006.25 1970.15 2826.63 2126.48 2637.25C2423.81 2275.91 2731.36 1902.74 3040.37 2090.02C3085.66 2117.18 3129.5 2144.33 3171.14 2170.78C3397.6 2312.12 3577.31 2424.21 3690.54 2371.3C3757.75 2339.97 3795.74 2257.12 3809.62 2109.52C3838.11 1804.57 3890.7 1574.82 4055.07 1445.32C4171.96 1352.72 4338.52 1318.61 4564.98 1339.49C5199.08 1398.67 5616.94 1291.45 5807.6 1022.02C5960.28 806.187 5933.99 525.609 5885.04 327.882C5857.28 215.79 5819.29 116.926 5789.34 48H5765.96C5795.92 116.23 5835.36 217.182 5863.85 332.755C5911.34 526.305 5936.91 800.617 5789.34 1010.18C5603.79 1272.66 5192.5 1376.39 4567.17 1318.61C4334.86 1297.02 4163.19 1333.23 4041.19 1429.31C3871.71 1563.68 3816.92 1797.61 3787.7 2108.12C3774.55 2245.98 3740.22 2326.04 3681.04 2353.19C3578.77 2400.54 3404.17 2291.93 3183.55 2154.08C3141.18 2127.62 3097.35 2100.47 3052.06 2073.31C2905.22 1984.2 2746.7 2006.48 2567.72 2141.54C2411.39 2258.51 2257.98 2445.1 2109.68 2625.42C1954.81 2814.09 1807.97 2991.63 1666.98 3083.53C1584.43 3137.14 1507 3109.99 1455.86 3077.27C1309.03 2983.28 1214.79 2748.65 1253.51 2575.29C1273.23 2488.96 1333.86 2379.65 1513.57 2350.41C1647.99 2328.13 1791.9 2296.8 1940.93 2177.05C2110.41 2040.59 2255.06 1812.93 2383.63 1480.13C2447.92 1313.73 2552.38 1180.76 2693.37 1084.68C2806.6 1007.4 2944.67 953.786 3102.47 924.545C3204.74 905.747 3302.63 899.481 3385.18 899.481C3519.6 899.481 3611.64 915.494 3613.1 915.494C3616.76 916.19 4015.62 983.724 4445.9 1006.7C5025.94 1038.03 5384.63 978.154 5511.01 827.77C5635.93 680.171 5665.15 480.355 5595.02 250.601C5570.91 171.928 5539.5 102.305 5511.74 48.6962H5486.9C5515.39 101.609 5549 174.016 5573.84 256.171C5621.32 411.429 5645.43 634.916 5494.21 815.238Z" fill="#848484"/>
<path fill-rule="evenodd" clip-rule="evenodd" d="M3139.5 1121.24C3217.75 1085.47 3304.78 1077.9 3385.23 1100.6C3464.21 1122.61 3523.44 1168.7 3560.74 1237.49C3674.83 1444.54 3573.91 1808.44 3503.7 2006.55C3485.42 2058.83 3462.75 2086.35 3432.76 2092.54L3432.76 2092.54C3428.37 2093.23 3423.99 2093.91 3419.6 2093.91C3370.88 2093.91 3314.93 2040.19 3245.29 1973.31L3244.08 1972.16C3177.53 1908.18 3102.21 1835.95 3011.52 1785.05C2860.14 1699.75 2785.55 1604.14 2789.94 1499.58C2797.98 1317.29 3051.75 1161.82 3139.5 1121.24ZM3428.37 2072.59C3449.58 2067.78 3467.86 2044.39 3483.22 2000.36C3644.84 1544.98 3589.26 1333.11 3540.99 1247.81C3505.89 1184.53 3451.04 1141.88 3378.64 1121.24C3350.12 1112.98 3320.87 1108.86 3290.89 1108.86C3242.62 1108.86 3194.35 1119.18 3149.01 1139.81C3064.18 1179.02 2819.19 1328.29 2811.87 1500.27C2807.49 1596.57 2879.15 1686.69 3023.22 1767.17C3115.23 1818.28 3194.33 1894.37 3258.37 1955.98L3260.17 1957.71L3261 1958.51C3329.39 2024.21 3388.31 2080.81 3428.37 2072.59Z" fill="#848484"/>
<path fill-rule="evenodd" clip-rule="evenodd" d="M3201.02 1434.64C3223.55 1422.51 3248.66 1419.66 3271.84 1427.51C3294.37 1435.35 3311.76 1451.05 3323.35 1475.3C3355.54 1543.79 3327.85 1661.49 3308.54 1725.7C3305.32 1737.83 3298.88 1754.23 3284.72 1757.8C3282.78 1758.51 3281.5 1758.51 3279.57 1758.51C3263.62 1758.51 3248.31 1741.02 3228 1717.81L3227.41 1717.14C3210.03 1697.16 3190.07 1674.34 3166.25 1658.64C3123.11 1630.11 3101.87 1597.29 3103.15 1560.91C3105.57 1492.73 3188.82 1442.08 3199.82 1435.39C3200.56 1434.94 3200.98 1434.68 3201.02 1434.64ZM3280.21 1736.41C3282.14 1736.41 3286 1730.7 3289.87 1718.58C3304.68 1669.35 3335.58 1548.08 3306.61 1484.59C3297.59 1466.04 3284.72 1453.91 3266.69 1448.2C3259.61 1446.06 3251.88 1444.64 3244.8 1444.64C3232.57 1444.64 3220.98 1447.49 3209.39 1453.91C3192 1463.9 3124.4 1510.27 3122.47 1562.34C3121.18 1589.45 3139.21 1615.85 3175.91 1640.1C3201.66 1657.22 3223.55 1682.19 3240.94 1702.17C3241.81 1703.14 3242.7 1704.12 3243.6 1705.12C3257.28 1720.33 3273.57 1738.42 3280.21 1736.41Z" fill="#848484"/>
<path d="M9016.59 1295.11C8737.92 1385.79 8544.6 1650.32 8443.2 2081.21C8396.51 2280.29 8279.79 2405.73 8096.68 2454.14C7753.82 2545.5 7205.23 2335.51 6822.24 1965.3C6515.12 1669.41 6391.83 1344.2 6483.75 1073.53C6569.1 822.639 6593.18 549.927 6555.97 264.261C6547.95 204.264 6537.01 142.904 6523.87 81.5439H6501.26C6515.12 144.268 6526.06 205.628 6534.09 266.988C6571.29 549.927 6547.22 819.912 6463.33 1068.08C6368.49 1346.25 6493.97 1678.27 6806.92 1980.3C6989.3 2156.2 7218.36 2304.15 7452.53 2396.87C7618.86 2463 7779.35 2496.41 7920.87 2496.41C7986.53 2496.41 8047.81 2488.91 8103.25 2474.59C8291.46 2424.82 8416.94 2290.51 8465.08 2085.98C8565.03 1662.59 8752.51 1403.52 9023.88 1314.88C9410.52 1188.76 9905.85 1426.01 10310 1700.77V1675.55C9902.94 1400.79 9407.6 1168.3 9016.59 1295.11Z" fill="#848484"/>
<path d="M9139.05 758.561C8901.77 803.146 8721.06 950.622 8602.79 1195.5C8438.97 1534.35 8231.08 1771.68 7984.25 1902.01C7719.8 2041.26 7484.72 2017.94 7334.13 1974.04C7151.95 1920.53 6994.74 1808.04 6891.17 1657.13C6783.91 1501.43 6744.25 1317.6 6780.24 1139.94C6854.44 770.907 6882.35 414.908 6864.72 81.5439H6842.68C6860.31 413.536 6832.4 768.164 6758.94 1135.82C6722.21 1318.97 6762.61 1507.6 6872.8 1667.42C6979.32 1822.44 7140.93 1937.68 7328.25 1992.56C7406.86 2015.88 7487.66 2026.85 7568.47 2026.85C7713.18 2026.85 7859.37 1990.5 7995.27 1919.16C8246.51 1786.78 8457.34 1546.01 8623.36 1203.05C8738.69 964.341 8913.52 821.667 9143.45 777.767C9330.04 742.784 9554.1 774.337 9791.37 870.368C9977.23 945.135 10165.3 1057.63 10310 1180.41V1152.97C10011 907.408 9529.12 685.166 9139.05 758.561Z" fill="#848484"/>
<path d="M5523.32 9496.24C5504.68 9477.76 5481.03 9470.36 5453.79 9473.32C5361.32 9483.67 5235.17 9620.47 5139.83 9741.01H5167.79C5258.82 9627.13 5374.94 9505.12 5455.94 9495.5C5476.73 9493.28 5493.93 9498.46 5508.27 9512.51C5557.73 9560.58 5612.92 9648.57 5663.1 9741.01H5688.18C5635.86 9643.4 5577.08 9548.01 5523.32 9496.24Z" fill="#848484"/>
<path d="M10093 741.88C9843.79 719.567 9542.73 627.524 9266.51 488.066C8946.45 326.294 8679 567.557 8369.9 846.474C8134.61 1059.15 7867.89 1299.71 7537.6 1386.88C7421.41 1417.56 7331.53 1401.52 7269.42 1340.86C7058.24 1132.36 7200 449.715 7296.46 81.5439H7273.81C7244.58 193.808 7210.96 333.964 7184.66 480.396C7103.55 935.728 7126.93 1229.99 7254.08 1355.5C7300.11 1400.82 7359.3 1423.14 7430.91 1423.14C7465.99 1423.14 7503.26 1417.56 7544.18 1407.1C7878.85 1319.24 8148.49 1076.58 8385.25 861.815C8688.5 588.476 8950.11 352.094 9256.28 506.893C9538.35 649.838 9835.02 740.486 10090.8 762.799C10170.4 769.772 10243.5 769.772 10310 762.799V741.88C10245 748.853 10171.9 748.853 10093 741.88Z" fill="#848484"/>
<path d="M7606.18 985.062C7617.99 986.433 7629.07 987.118 7640.88 987.118C7837.26 987.118 8056.53 786.946 8173.91 662.181C8329.69 497.656 8481.04 283.773 8586.61 81.5439H8562.25C8458.15 278.974 8309.76 487.373 8157.67 648.47C7948 870.58 7753.1 983.005 7609.13 964.496C7549.33 956.955 7510.2 931.591 7489.53 888.403C7412.01 723.878 7621.68 341.357 7786.32 82.2295H7760.48C7727.99 134.329 7693.3 190.542 7660.07 248.811C7479.2 564.837 7414.97 782.833 7469.6 896.629C7493.22 946.673 7539 976.15 7606.18 985.062Z" fill="#848484"/>
<path d="M7870.19 550.39C7874.75 551.101 7880.07 551.101 7885.38 551.101C7930.98 551.101 8003.17 525.489 8103.47 418.06C8177.94 339.089 8249.37 231.66 8291.16 137.749C8298 122.097 8305.6 102.887 8312.44 82.2554H8288.88C8283.56 97.1958 8277.48 112.848 8270.64 129.211C8184.78 322.726 7988.73 543.987 7873.99 528.335C7852.71 525.489 7839.03 516.951 7831.43 501.3C7792.68 418.771 7949.97 174.744 8017.6 81.5439H7990.25C7941.62 150.555 7764.56 410.234 7810.92 509.837C7820.8 533.315 7841.31 546.832 7870.19 550.39Z" fill="#848484"/>
<path d="M9949.64 524.469C9806.78 506.949 9646.7 448.079 9472.98 349.262C9321.51 263.059 9185.84 160.738 9089.65 81.5439H9056.62C9154.97 163.541 9299.26 274.973 9462.21 367.483C9638.81 467.702 9801.76 527.974 9947.48 545.494C9977.63 548.999 10007.1 551.101 10036.5 551.101C10137.7 551.101 10228.9 528.674 10310 483.821V459.292C10205.9 518.863 10086 541.289 9949.64 524.469Z" fill="#848484"/>
<path fill-rule="evenodd" clip-rule="evenodd" d="M5586.35 6245.82C5726.61 6167.78 5969.69 6165.69 6308.97 6240.25C6552.05 6293.9 6759.14 6369.15 6776.03 6375.42C6994.14 6413.74 7021.31 6447.89 7019.84 6472.97C7018.37 6507.11 6959.62 6553.8 6516.06 6616.5C6240.67 6655.52 5912.41 6687.58 5673 6710.57L5613.52 6716.14C5570.19 6720.32 5531.27 6722.41 5496.02 6722.41C5361.63 6722.41 5283.05 6691.76 5262.49 6631.83C5225.04 6523.83 5397.62 6351.04 5586.35 6245.82ZM6512.39 6596.3C6947.87 6534.29 6996.34 6488.99 6997.07 6472.27C6997.07 6463.91 6981.65 6433.25 6770.89 6396.32L6768.68 6395.63C6768.57 6395.59 6767.92 6395.36 6766.75 6394.93C6744.86 6387.01 6541.59 6313.4 6304.56 6261.15C6176.05 6232.58 6022.56 6207.5 5883.03 6207.5C5773.61 6207.5 5672.27 6223.53 5598.1 6264.63C5504.83 6316.89 5417.44 6384.48 5357.96 6450.67C5295.54 6521.05 5269.1 6583.06 5283.79 6626.26C5306.55 6690.36 5419.65 6714.75 5611.32 6695.94L5670.8 6690.36C5688.5 6688.61 5706.67 6686.82 5725.27 6684.98C5958.33 6661.99 6258.03 6632.43 6512.39 6596.3Z" fill="#848484"/>
<path fill-rule="evenodd" clip-rule="evenodd" d="M5766.83 1868.31C5760.74 1815.95 5843.71 1754.42 6012.68 1684.39C6123.8 1638.58 6256.23 1652.98 6348.33 1721.7C6421.4 1776.02 6500.56 1853.25 6460.98 1917.39C6430.53 1967.13 6333.87 1993.31 6205.24 1993.31C6119.23 1993.31 6018.76 1981.53 5913.73 1957.32C5818.59 1935.72 5770.64 1906.27 5766.83 1868.31ZM5919.82 1938.34C6162.62 1994.63 6396.28 1980.89 6441.19 1908.24C6466.3 1866.35 6429.77 1807.45 6333.87 1736.76C6280.59 1698.15 6214.37 1677.86 6147.39 1677.86C6104.77 1677.86 6062.15 1685.71 6022.57 1702.07C5868.06 1766.21 5785.1 1824.46 5789.67 1866.35C5792.71 1894.49 5837.62 1919.36 5919.82 1938.34Z" fill="#848484"/>
<path d="M8088.98 9494.95C7704.89 9449.7 7479.29 9146.7 7194.72 8762.8C7115.1 8655.86 7032.53 8544.8 6939.64 8429.63C6706.68 8141.02 6445.7 7967.58 6164.81 7914.11C5845.59 7853.79 5494.67 7947.02 5122.37 8191.07C4713.21 8459.11 4121.21 8890.31 3613.26 9290.66C3470.98 9403.09 3285.2 9552.53 3103.1 9707.47H3135.54C3280.04 9585.44 3444.44 9451.08 3627.27 9306.43C4134.48 8906.76 4725.74 8475.56 5134.17 8208.21C5827.9 7753.7 6429.48 7832.53 6921.21 8442.66C7013.37 8557.14 7095.93 8668.2 7175.56 8775.14C7463.81 9163.15 7691.62 9468.9 8085.3 9515.52C8364.71 9548.42 8524.69 9612.86 8563.02 9707.47H8586.61C8550.49 9601.21 8383.14 9529.91 8088.98 9494.95Z" fill="#848484"/>
<path d="M5979.26 8706.83C5842.9 8648.52 5702.92 8655.54 5562.95 8727.2C5215.9 8904.25 4901.32 9113.62 4627.87 9350.38C4459.75 9495.81 4332.77 9629.3 4238.97 9741.01H4267.83C4481.4 9490.19 4894.11 9091.84 5572.33 8745.47C5706.53 8677.32 5840.01 8670.3 5969.88 8725.8C6231.79 8837.51 6436.7 9181.76 6562.25 9451.55C6610.59 9554.12 6650.99 9654.59 6683.46 9741.01H6706.55C6673.36 9652.48 6632.23 9549.21 6582.45 9443.12C6397.74 9046.17 6194.27 8798.16 5979.26 8706.83Z" fill="#848484"/>
<path fill-rule="evenodd" clip-rule="evenodd" d="M2530.75 7287.71C2503.51 7237.89 2508.18 7165.93 2584.45 7125.8C2698.85 7065.6 2855.28 7093.28 2916.76 7140.33C2943.22 7160.39 2952.56 7183.92 2942.44 7206.06C2922.21 7253.11 2844.38 7301.54 2712.08 7349.29C2692.63 7356.21 2673.17 7359.67 2655.27 7359.67C2597.68 7359.67 2552.54 7326.45 2530.75 7287.71ZM2702.74 7329.91C2827.26 7284.93 2902.75 7239.26 2920.65 7198.44C2928.43 7181.14 2914.42 7165.23 2900.41 7156.23C2867.73 7131.33 2803.14 7112.64 2734.65 7112.64C2687.18 7112.64 2638.15 7121.64 2595.35 7143.78C2531.53 7176.99 2526.86 7235.11 2550.99 7278.01C2575.11 7320.91 2632.7 7355.51 2702.74 7329.91Z" fill="#848484"/>
<path fill-rule="evenodd" clip-rule="evenodd" d="M3726.77 9009.47C3697.97 9076.12 3385.5 9221.55 3282.08 9259.92C3259.92 9268 3238.5 9272.04 3218.56 9271.37C3155.03 9271.37 3105.54 9234.34 3081.16 9189.9C3050.14 9133.35 3056.05 9051.89 3140.26 9006.78C3287.99 8927.33 3643.3 8914.54 3714.22 8969.75C3728.99 8980.52 3733.42 8994.66 3726.77 9009.47ZM3151.34 9024.26C3078.95 9063.31 3073.77 9131.31 3101.11 9181.13C3128.44 9230.95 3193.44 9271.35 3273.22 9241.05C3403.97 9191.9 3682.45 9054.56 3705.35 9002.04C3707.57 8997.33 3708.31 8991.95 3699.44 8985.21C3635.92 8936.06 3286.52 8951.55 3151.34 9024.26Z" fill="#848484"/>
<path d="M670.1 528.958C793.909 456.669 753.404 226.775 712.134 81.5439H688.442C699.142 118.014 709.077 160.346 717.484 204.632C737.355 317.299 743.468 462.53 657.872 513.328C556.991 571.941 352.172 495.093 48 284.736V309.484C282.625 470.345 460.696 551.101 579.919 551.101C615.074 551.101 644.88 543.286 670.1 528.958Z" fill="#848484"/>
<path fill-rule="evenodd" clip-rule="evenodd" d="M5006.29 5112.52C4899.57 5112.52 4785.6 5102.75 4704.29 5074.73C4588.13 5035.64 4581.6 4975.69 4598.3 4932.69C4615 4886.43 4649.12 4852.55 4700.66 4832.36C4792.86 4796.52 4938.05 4804.99 5131.88 4858.42C5274.89 4898.16 5393.22 4948.33 5394.68 4948.98C5455.66 4976.35 5457.84 5002.41 5449.85 5019.35C5425.89 5068.21 5274.89 5096.88 5142.04 5107.31C5100.66 5110.56 5054.2 5112.52 5006.29 5112.52ZM4708.64 4850.61C4662.91 4868.2 4632.42 4898.17 4617.9 4939.22C4599.75 4989.39 4630.97 5029.13 4712.27 5057.15C4808.1 5089.72 4972.17 5101.45 5139.86 5088.42C5294.49 5076.04 5413.55 5044.77 5429.52 5012.19C5437.51 4995.25 5409.2 4978.31 5384.51 4967.23C5377.25 4963.98 5062.19 4831.06 4835.69 4831.06C4788.5 4831.06 4744.94 4836.27 4708.64 4850.61Z" fill="#848484"/>
</g>
</g>
<defs>
<filter id="filter0_d_129_1547" x="0" y="0" width="10370" height="9801" filterUnits="userSpaceOnUse" color-interpolation-filters="sRGB">
<feFlood flood-opacity="0" result="BackgroundImageFix"/>
<feColorMatrix in="SourceAlpha" type="matrix" values="0 0 0 0 0 0 0 0 0 0 0 0 0 0 0 0 0 0 127 0" result="hardAlpha"/>
<feOffset dx="6" dy="6"/>
<feGaussianBlur stdDeviation="27"/>
<feColorMatrix type="matrix" values="0 0 0 0 0 0 0 0 0 0 0 0 0 0 0 0 0 0 0.03 0"/>
<feBlend mode="normal" in2="BackgroundImageFix" result="effect1_dropShadow_129_1547"/>
<feBlend mode="normal" in="SourceGraphic" in2="effect1_dropShadow_129_1547" result="shape"/>
</filter>
</defs>
</svg>
