<svg width="133" height="134" viewBox="0 0 133 134" fill="none" xmlns="http://www.w3.org/2000/svg">
<path d="M66.5 0.500028C50.5514 0.500028 35.134 6.23176 23.0587 16.6502C10.9834 27.0686 3.05456 41.4798 0.717721 57.2562C-1.61912 73.0326 1.79173 89.1234 10.3284 102.595C18.8651 116.066 31.9589 126.021 47.2227 130.645L53.7613 109.057C43.6749 106.002 35.0223 99.4237 29.3812 90.5215C23.7401 81.6194 21.4861 70.9864 23.0304 60.5612C24.5746 50.136 29.8141 40.6129 37.7935 33.7283C45.773 26.8437 55.961 23.0561 66.5 23.0561L66.5 0.500028Z" fill="#2A64F6"/>
<path d="M66.5 0.500028C76.0565 0.500027 85.5007 2.55975 94.1894 6.53891C102.878 10.5181 110.607 16.3232 116.85 23.5588C123.093 30.7944 127.703 39.2905 130.366 48.4684C133.029 57.6464 133.683 67.2905 132.282 76.7438C130.882 86.1972 127.461 95.2377 122.251 103.25C117.042 111.261 110.167 118.056 102.095 123.172C94.0227 128.287 84.9428 131.602 75.4737 132.892C66.0046 134.181 56.3688 133.415 47.2227 130.645L53.7448 109.112C59.7965 110.945 66.1722 111.452 72.4376 110.599C78.703 109.745 84.7109 107.552 90.0521 104.167C95.3932 100.782 99.9421 96.2864 103.389 90.9852C106.836 85.684 109.1 79.7022 110.026 73.4472C110.953 67.1922 110.52 60.811 108.758 54.7382C106.996 48.6655 103.946 43.0439 99.8149 38.2563C95.6843 33.4687 90.5702 29.6277 84.8212 26.9948C79.0722 24.3619 72.8232 22.999 66.5 22.999L66.5 0.500028Z" fill="#D9D9D9"/>
<path d="M42.0027 78.2012C41.4694 78.2012 41.0214 78.0198 40.6587 77.6572C40.296 77.2732 40.1147 76.8038 40.1147 76.2492V61.2092L40.7867 61.3692L34.6107 69.0172L34.4507 68.6012H45.7787C46.2907 68.6012 46.7174 68.7718 47.0587 69.1132C47.4 69.4545 47.5707 69.8812 47.5707 70.3932C47.5707 70.8838 47.4 71.2998 47.0587 71.6412C46.7174 71.9612 46.2907 72.1212 45.7787 72.1212H31.7947C31.3467 72.1212 30.9094 71.9398 30.4827 71.5772C30.0774 71.2145 29.8747 70.7665 29.8747 70.2332C29.8747 69.7638 30.0347 69.3372 30.3547 68.9532L40.4667 56.5692C40.6374 56.3345 40.8614 56.1532 41.1387 56.0252C41.416 55.8758 41.7254 55.8012 42.0667 55.8012C42.6214 55.8012 43.0694 55.9932 43.4107 56.3772C43.7734 56.7398 43.9547 57.1985 43.9547 57.7532V76.2492C43.9547 76.8038 43.7627 77.2732 43.3787 77.6572C43.016 78.0198 42.5574 78.2012 42.0027 78.2012ZM58.1912 78.5212C56.3565 78.5212 54.7992 78.0412 53.5192 77.0812C52.2605 76.0998 51.3005 74.7452 50.6392 73.0172C49.9779 71.2678 49.6472 69.2625 49.6472 67.0012C49.6472 64.7185 49.9779 62.7132 50.6392 60.9852C51.3005 59.2572 52.2605 57.9132 53.5192 56.9532C54.7992 55.9718 56.3565 55.4812 58.1912 55.4812C60.0259 55.4812 61.5725 55.9718 62.8312 56.9532C64.1112 57.9132 65.0819 59.2572 65.7432 60.9852C66.4045 62.7132 66.7352 64.7185 66.7352 67.0012C66.7352 69.2625 66.4045 71.2678 65.7432 73.0172C65.0819 74.7452 64.1112 76.0998 62.8312 77.0812C61.5725 78.0412 60.0259 78.5212 58.1912 78.5212ZM58.1912 74.6812C59.0872 74.6812 59.8552 74.4038 60.4952 73.8492C61.1565 73.2732 61.6685 72.4198 62.0312 71.2892C62.3939 70.1372 62.5752 68.7078 62.5752 67.0012C62.5752 65.2732 62.3939 63.8438 62.0312 62.7132C61.6685 61.5825 61.1565 60.7398 60.4952 60.1852C59.8552 59.6092 59.0872 59.3212 58.1912 59.3212C57.3165 59.3212 56.5485 59.6092 55.8872 60.1852C55.2259 60.7398 54.7139 61.5825 54.3512 62.7132C53.9885 63.8438 53.8072 65.2732 53.8072 67.0012C53.8072 68.7078 53.9885 70.1372 54.3512 71.2892C54.7139 72.4198 55.2259 73.2732 55.8872 73.8492C56.5485 74.4038 57.3165 74.6812 58.1912 74.6812ZM74.2314 67.9612C73.2074 67.9612 72.3008 67.6838 71.5114 67.1292C70.7221 66.5745 70.1034 65.8278 69.6554 64.8892C69.2074 63.9505 68.9834 62.9052 68.9834 61.7532C68.9834 60.5798 69.2074 59.5238 69.6554 58.5852C70.1034 57.6465 70.7221 56.8998 71.5114 56.3452C72.3008 55.7905 73.2074 55.5132 74.2314 55.5132C75.2768 55.5132 76.1834 55.7905 76.9514 56.3452C77.7408 56.8998 78.3488 57.6465 78.7754 58.5852C79.2234 59.5238 79.4474 60.5798 79.4474 61.7532C79.4474 62.9052 79.2128 63.9505 78.7434 64.8892C78.2741 65.8278 77.6448 66.5745 76.8554 67.1292C76.0874 67.6838 75.2128 67.9612 74.2314 67.9612ZM74.2314 65.1132C74.8714 65.1132 75.3621 64.7932 75.7034 64.1532C76.0661 63.5132 76.2474 62.7132 76.2474 61.7532C76.2474 60.7932 76.0768 59.9932 75.7354 59.3532C75.3941 58.7132 74.8928 58.3932 74.2314 58.3932C73.5914 58.3932 73.0901 58.7132 72.7274 59.3532C72.3648 59.9932 72.1834 60.7932 72.1834 61.7532C72.1834 62.7132 72.3541 63.5132 72.6954 64.1532C73.0581 64.7932 73.5701 65.1132 74.2314 65.1132ZM87.9594 78.5212C86.9781 78.5212 86.0928 78.2438 85.3034 77.6892C84.5141 77.1345 83.8848 76.3878 83.4154 75.4492C82.9461 74.5105 82.7114 73.4652 82.7114 72.3132C82.7114 71.1398 82.9354 70.0838 83.3834 69.1452C83.8314 68.2065 84.4501 67.4598 85.2394 66.9052C86.0288 66.3505 86.9354 66.0732 87.9594 66.0732C89.0048 66.0732 89.9114 66.3505 90.6794 66.9052C91.4688 67.4598 92.0768 68.2065 92.5034 69.1452C92.9514 70.0838 93.1754 71.1398 93.1754 72.3132C93.1754 73.4652 92.9408 74.5105 92.4714 75.4492C92.0021 76.3878 91.3728 77.1345 90.5834 77.6892C89.8154 78.2438 88.9408 78.5212 87.9594 78.5212ZM87.9594 75.6732C88.5994 75.6732 89.0901 75.3532 89.4314 74.7132C89.7941 74.0732 89.9754 73.2732 89.9754 72.3132C89.9754 71.3532 89.8048 70.5532 89.4634 69.9132C89.1221 69.2732 88.6208 68.9532 87.9594 68.9532C87.3194 68.9532 86.8181 69.2732 86.4554 69.9132C86.0928 70.5532 85.9114 71.3532 85.9114 72.3132C85.9114 73.2732 86.0821 74.0732 86.4234 74.7132C86.7861 75.3532 87.2981 75.6732 87.9594 75.6732ZM74.6154 78.2652C74.2741 78.2652 73.9114 78.1265 73.5274 77.8492C73.1434 77.5505 72.9514 77.1665 72.9514 76.6972C72.9514 76.4198 73.0581 76.0998 73.2714 75.7372L86.0074 56.5052C86.3914 55.9932 86.8288 55.7372 87.3194 55.7372C87.6821 55.7372 88.0448 55.8758 88.4074 56.1532C88.7914 56.4305 88.9834 56.8145 88.9834 57.3052C88.9834 57.5825 88.8768 57.9025 88.6634 58.2652L75.9274 77.4972C75.5434 78.0092 75.1061 78.2652 74.6154 78.2652Z" fill="black"/>
</svg>
