<svg width="25" height="25" viewBox="0 0 25 25" fill="none" xmlns="http://www.w3.org/2000/svg">
<path d="M0 0V18.75H6.25V25H25V6.25H18.75V0H0ZM2.08333 2.08333H16.6667V6.83594L6.83594 16.6667H2.08333V2.08333ZM7.29167 4.16667V5.20833H4.16667V7.29167H9.3099C9.17562 8.48796 8.80941 9.43197 8.20312 10.0911C7.84505 9.97314 7.5236 9.82666 7.25911 9.66797C6.52669 9.23258 6.25 8.76872 6.25 8.33333H4.16667C4.16667 9.57438 4.93164 10.6079 5.95703 11.2956C5.44434 11.4054 4.85026 11.4583 4.16667 11.4583V13.5417C6.014 13.5417 7.55208 13.1185 8.72396 12.3372C9.26921 12.4308 9.82259 12.5 10.4167 12.5V10.5469C10.9823 9.5988 11.2834 8.49202 11.3932 7.29167H12.5V5.20833H9.375V4.16667H7.29167ZM18.1641 8.33333H22.9167V22.9167H8.33333V18.1641L18.1641 8.33333ZM16.6667 10.2539L15.6901 13.2161L13.6068 19.4661L13.5417 19.6289V20.8333H15.625V19.9219L15.6576 19.7917H17.6758L17.7083 19.9219V20.8333H19.7917V19.6289L19.7266 19.4661L17.6432 13.2161L16.6667 10.2539ZM16.6667 16.7969L16.9596 17.7083H16.3737L16.6667 16.7969Z" fill="white"/>
</svg>
