<svg width="104" height="105" viewBox="0 0 104 105" fill="none" xmlns="http://www.w3.org/2000/svg">
<path fill-rule="evenodd" clip-rule="evenodd" d="M52 104.5C80.7188 104.5 104 81.2188 104 52.5C104 42.9373 101.419 33.9774 96.9149 26.2792C96.6897 26.7476 96.3829 27.1865 95.9944 27.5746L55.4669 68.1017C55.4634 68.1052 55.4613 68.1082 55.4593 68.1112C55.4586 68.1122 55.4579 68.1133 55.4571 68.1143C54.5338 69.0383 53.3206 69.5 52.1105 69.5C50.9005 69.5 49.6905 69.0383 48.7668 68.1158L30.3863 49.7381C28.5379 47.8904 28.5379 44.8969 30.3863 43.0485C32.234 41.2008 35.2271 41.2019 37.0748 43.0474L52.1105 58.0799L89.3062 20.8861C90.1161 20.0751 91.1475 19.62 92.2061 19.5207C82.6693 7.90779 68.1997 0.5 52 0.5C23.2812 0.5 0 23.7812 0 52.5C0 81.2188 23.2812 104.5 52 104.5Z" fill="#0F1F3E"/>
</svg>
