<svg width="18" height="18" viewBox="0 0 18 18" fill="none" xmlns="http://www.w3.org/2000/svg">
<path d="M5.625 1C2.51965 1 0 3.26793 0 6.0625C0 10.5625 5.625 16.75 5.625 16.75C5.625 16.75 11.25 10.5625 11.25 6.0625C11.25 3.26793 8.73035 1 5.625 1ZM5.625 8.875C5.17999 8.875 4.74498 8.74304 4.37497 8.49581C4.00496 8.24857 3.71657 7.89717 3.54627 7.48604C3.37597 7.0749 3.33142 6.6225 3.41823 6.18605C3.50505 5.74959 3.71934 5.34868 4.03401 5.03401C4.34868 4.71934 4.74959 4.50505 5.18605 4.41823C5.6225 4.33142 6.0749 4.37597 6.48604 4.54627C6.89717 4.71657 7.24857 5.00496 7.4958 5.37497C7.74304 5.74498 7.875 6.17999 7.875 6.625C7.87435 7.22154 7.63708 7.79345 7.21527 8.21527C6.79345 8.63709 6.22154 8.87435 5.625 8.875Z" fill="black"/>
</svg>
