<svg width="20" height="21" viewBox="0 0 20 21" fill="none" xmlns="http://www.w3.org/2000/svg">
<g clip-path="url(#clip0_193_1423)">
<path d="M10 0.0161133C7.28625 0.0161133 6.945 0.0286133 5.87875 0.0761133C4.8125 0.126113 4.08625 0.293613 3.45 0.541113C2.78231 0.79152 2.17768 1.18536 1.67875 1.69486C1.16925 2.19379 0.775407 2.79842 0.525 3.46611C0.2775 4.10111 0.10875 4.82861 0.06 5.89111C0.0125 6.95986 0 7.29986 0 10.0174C0 12.7324 0.0125 13.0724 0.06 14.1386C0.11 15.2036 0.2775 15.9299 0.525 16.5661C0.78125 17.2236 1.1225 17.7811 1.67875 18.3374C2.23375 18.8936 2.79125 19.2361 3.44875 19.4911C4.08625 19.7386 4.81125 19.9074 5.87625 19.9561C6.94375 20.0036 7.28375 20.0161 10 20.0161C12.7163 20.0161 13.055 20.0036 14.1225 19.9561C15.1863 19.9061 15.915 19.7386 16.5513 19.4911C17.2185 19.2405 17.8227 18.8467 18.3212 18.3374C18.8775 17.7811 19.2188 17.2236 19.475 16.5661C19.7213 15.9299 19.89 15.2036 19.94 14.1386C19.9875 13.0724 20 12.7324 20 10.0161C20 7.29986 19.9875 6.95986 19.94 5.89236C19.89 4.82861 19.7213 4.10111 19.475 3.46611C19.2246 2.79842 18.8308 2.19379 18.3212 1.69486C17.8223 1.18536 17.2177 0.79152 16.55 0.541113C15.9125 0.293613 15.185 0.124863 14.1213 0.0761133C13.0538 0.0286133 12.715 0.0161133 9.9975 0.0161133H10ZM9.10375 1.81861H10.0013C12.6713 1.81861 12.9875 1.82736 14.0413 1.87611C15.0162 1.91986 15.5462 2.08361 15.8988 2.21986C16.365 2.40111 16.6987 2.61861 17.0487 2.96861C17.3988 3.31861 17.615 3.65111 17.7963 4.11861C17.9338 4.46986 18.0963 4.99986 18.14 5.97486C18.1887 7.02861 18.1987 7.34486 18.1987 10.0136C18.1987 12.6824 18.1887 12.9999 18.14 14.0536C18.0963 15.0286 17.9325 15.5574 17.7963 15.9099C17.6348 16.3435 17.3791 16.7359 17.0475 17.0586C16.6975 17.4086 16.365 17.6249 15.8975 17.8061C15.5475 17.9436 15.0175 18.1061 14.0413 18.1511C12.9875 18.1986 12.6713 18.2099 10.0013 18.2099C7.33125 18.2099 7.01375 18.1986 5.96 18.1511C4.985 18.1061 4.45625 17.9436 4.10375 17.8061C3.66979 17.6452 3.277 17.3899 2.95375 17.0586C2.62159 16.7356 2.36541 16.3428 2.20375 15.9086C2.0675 15.5574 1.90375 15.0274 1.86 14.0524C1.8125 12.9986 1.8025 12.6824 1.8025 10.0111C1.8025 7.33986 1.8125 7.02611 1.86 5.97236C1.905 4.99736 2.0675 4.46736 2.205 4.11486C2.38625 3.64861 2.60375 3.31486 2.95375 2.96486C3.30375 2.61486 3.63625 2.39861 4.10375 2.21736C4.45625 2.07986 4.985 1.91736 5.96 1.87236C6.8825 1.82986 7.24 1.81736 9.10375 1.81611V1.81861ZM15.3387 3.47861C15.1812 3.47861 15.0251 3.50965 14.8795 3.56996C14.7339 3.63026 14.6017 3.71865 14.4902 3.83009C14.3788 3.94152 14.2904 4.0738 14.2301 4.21939C14.1698 4.36498 14.1388 4.52103 14.1388 4.67861C14.1388 4.8362 14.1698 4.99224 14.2301 5.13783C14.2904 5.28342 14.3788 5.41571 14.4902 5.52714C14.6017 5.63857 14.7339 5.72696 14.8795 5.78727C15.0251 5.84757 15.1812 5.87861 15.3387 5.87861C15.657 5.87861 15.9622 5.75218 16.1873 5.52714C16.4123 5.3021 16.5387 4.99687 16.5387 4.67861C16.5387 4.36035 16.4123 4.05513 16.1873 3.83009C15.9622 3.60504 15.657 3.47861 15.3387 3.47861ZM10.0013 4.88111C9.32009 4.87049 8.64362 4.99547 8.01122 5.24879C7.37883 5.50211 6.80314 5.8787 6.31769 6.35664C5.83223 6.83458 5.4467 7.40432 5.18355 8.03269C4.9204 8.66105 4.78488 9.33549 4.78488 10.0167C4.78488 10.698 4.9204 11.3724 5.18355 12.0008C5.4467 12.6292 5.83223 13.1989 6.31769 13.6768C6.80314 14.1548 7.37883 14.5314 8.01122 14.7847C8.64362 15.038 9.32009 15.163 10.0013 15.1524C11.3494 15.1313 12.6353 14.581 13.5812 13.6202C14.5272 12.6593 15.0574 11.3651 15.0574 10.0167C15.0574 8.6684 14.5272 7.37413 13.5812 6.4133C12.6353 5.45247 11.3494 4.90215 10.0013 4.88111ZM10.0013 6.68236C10.439 6.68236 10.8726 6.76859 11.277 6.93613C11.6815 7.10367 12.049 7.34923 12.3586 7.6588C12.6681 7.96836 12.9137 8.33587 13.0812 8.74034C13.2488 9.14481 13.335 9.57832 13.335 10.0161C13.335 10.4539 13.2488 10.8874 13.0812 11.2919C12.9137 11.6964 12.6681 12.0639 12.3586 12.3734C12.049 12.683 11.6815 12.9286 11.277 13.0961C10.8726 13.2636 10.439 13.3499 10.0013 13.3499C9.11709 13.3499 8.26913 12.9986 7.64393 12.3734C7.01873 11.7482 6.6675 10.9003 6.6675 10.0161C6.6675 9.13195 7.01873 8.284 7.64393 7.6588C8.26913 7.0336 9.11709 6.68236 10.0013 6.68236Z" fill="white"/>
</g>
<defs>
<clipPath id="clip0_193_1423">
<rect width="20" height="20" fill="white" transform="translate(0 0.0161133)"/>
</clipPath>
</defs>
</svg>
