<svg width="40" height="40" viewBox="0 0 40 40" fill="none" xmlns="http://www.w3.org/2000/svg">
<path d="M37.1429 22.8571H22.8571V37.1429C22.8571 37.9006 22.5561 38.6273 22.0203 39.1632C21.4845 39.699 20.7578 40 20 40C19.2422 40 18.5155 39.699 17.9797 39.1632C17.4439 38.6273 17.1429 37.9006 17.1429 37.1429V22.8571H2.85714C2.09938 22.8571 1.37266 22.5561 0.836838 22.0203C0.30102 21.4845 0 20.7578 0 20C0 19.2422 0.30102 18.5155 0.836838 17.9797C1.37266 17.4439 2.09938 17.1429 2.85714 17.1429H17.1429V2.85714C17.1429 2.09938 17.4439 1.37266 17.9797 0.836837C18.5155 0.301019 19.2422 0 20 0C20.7578 0 21.4845 0.301019 22.0203 0.836837C22.5561 1.37266 22.8571 2.09938 22.8571 2.85714V17.1429H37.1429C37.9006 17.1429 38.6273 17.4439 39.1632 17.9797C39.699 18.5155 40 19.2422 40 20C40 20.7578 39.699 21.4845 39.1632 22.0203C38.6273 22.5561 37.9006 22.8571 37.1429 22.8571Z" fill="white"/>
</svg>
