<svg width="24" height="25" viewBox="0 0 24 25" fill="none" xmlns="http://www.w3.org/2000/svg">
<g clip-path="url(#clip0_193_1419)">
<path fill-rule="evenodd" clip-rule="evenodd" d="M4 12.0161C4.00014 10.4766 4.44451 8.96976 5.27979 7.6765C6.11506 6.38323 7.30576 5.35846 8.70901 4.72513C10.1123 4.0918 11.6684 3.87682 13.1908 4.10599C14.7132 4.33516 16.1372 4.99874 17.2918 6.01711C18.4464 7.03548 19.2826 8.36537 19.7002 9.84722C20.1177 11.3291 20.0988 12.8999 19.6457 14.3713C19.1926 15.8427 18.3246 17.152 17.1458 18.1423C15.967 19.1326 14.5275 19.7617 13 19.9541V14.0161H15C15.2652 14.0161 15.5196 13.9108 15.7071 13.7232C15.8946 13.5357 16 13.2813 16 13.0161C16 12.7509 15.8946 12.4965 15.7071 12.309C15.5196 12.1215 15.2652 12.0161 15 12.0161H13V10.0161C13 9.7509 13.1054 9.49654 13.2929 9.30901C13.4804 9.12147 13.7348 9.01611 14 9.01611H14.5C14.7652 9.01611 15.0196 8.91076 15.2071 8.72322C15.3946 8.53568 15.5 8.28133 15.5 8.01611C15.5 7.7509 15.3946 7.49654 15.2071 7.30901C15.0196 7.12147 14.7652 7.01611 14.5 7.01611H14C13.2044 7.01611 12.4413 7.33218 11.8787 7.89479C11.3161 8.4574 11 9.22046 11 10.0161V12.0161H9C8.73478 12.0161 8.48043 12.1215 8.29289 12.309C8.10536 12.4965 8 12.7509 8 13.0161C8 13.2813 8.10536 13.5357 8.29289 13.7232C8.48043 13.9108 8.73478 14.0161 9 14.0161H11V19.9541C9.0667 19.7103 7.28882 18.7694 6 17.3079C4.71119 15.8463 4.00003 13.9647 4 12.0161ZM12 22.0161C17.523 22.0161 22 17.5391 22 12.0161C22 6.49311 17.523 2.01611 12 2.01611C6.477 2.01611 2 6.49311 2 12.0161C2 17.5391 6.477 22.0161 12 22.0161Z" fill="white"/>
</g>
<defs>
<clipPath id="clip0_193_1419">
<rect width="24" height="24" fill="white" transform="translate(0 0.0161133)"/>
</clipPath>
</defs>
</svg>
