<svg width="19" height="20" viewBox="0 0 19 20" fill="none" xmlns="http://www.w3.org/2000/svg">
<path d="M3.95898 14.7504H7.31565C7.41984 14.751 7.52312 14.731 7.61958 14.6916C7.71603 14.6522 7.80376 14.5941 7.87773 14.5208L13.3561 9.03452L15.6044 6.83369C15.6786 6.7601 15.7375 6.67254 15.7777 6.57607C15.8179 6.47959 15.8386 6.37612 15.8386 6.27161C15.8386 6.1671 15.8179 6.06362 15.7777 5.96715C15.7375 5.87068 15.6786 5.78312 15.6044 5.70953L12.2477 2.31328C12.1741 2.23907 12.0866 2.18018 11.9901 2.13999C11.8936 2.09979 11.7902 2.0791 11.6857 2.0791C11.5811 2.0791 11.4777 2.09979 11.3812 2.13999C11.2847 2.18018 11.1972 2.23907 11.1236 2.31328L8.89107 4.55369L3.3969 10.0399C3.32353 10.1139 3.26548 10.2016 3.22608 10.2981C3.18669 10.3946 3.16672 10.4978 3.16732 10.602V13.9587C3.16732 14.1687 3.25073 14.37 3.39919 14.5185C3.54766 14.667 3.74902 14.7504 3.95898 14.7504ZM11.6857 3.99161L13.9261 6.23202L12.8019 7.35619L10.5615 5.11578L11.6857 3.99161ZM4.75065 10.9266L9.44523 6.23202L11.6857 8.47244L6.99107 13.167H4.75065V10.9266ZM16.6257 16.3337H2.37565C2.16569 16.3337 1.96432 16.4171 1.81586 16.5656C1.66739 16.714 1.58398 16.9154 1.58398 17.1254C1.58398 17.3353 1.66739 17.5367 1.81586 17.6852C1.96432 17.8336 2.16569 17.917 2.37565 17.917H16.6257C16.8356 17.917 17.037 17.8336 17.1854 17.6852C17.3339 17.5367 17.4173 17.3353 17.4173 17.1254C17.4173 16.9154 17.3339 16.714 17.1854 16.5656C17.037 16.4171 16.8356 16.3337 16.6257 16.3337Z" fill="#4880FF"/>
</svg>
