<svg width="18" height="18" viewBox="0 0 18 18" fill="none" xmlns="http://www.w3.org/2000/svg">
<g clip-path="url(#clip0_198_7256)">
<path fill-rule="evenodd" clip-rule="evenodd" d="M2.12115 0.574918C2.318 0.378368 2.55437 0.225896 2.8146 0.127607C3.07483 0.0293176 3.35298 -0.0125448 3.63061 0.00479393C3.90824 0.0221327 4.17902 0.0982766 4.425 0.22818C4.67098 0.358083 4.88654 0.538779 5.0574 0.758293L7.07678 3.35254C7.4469 3.82842 7.5774 4.44829 7.43115 5.03329L6.81578 7.49704C6.78396 7.62465 6.78568 7.75832 6.82077 7.88507C6.85586 8.01182 6.92312 8.12734 7.01603 8.22042L9.78015 10.9845C9.87335 11.0776 9.98906 11.145 10.116 11.1801C10.243 11.2152 10.3769 11.2168 10.5047 11.1848L12.9673 10.5694C13.256 10.4972 13.5573 10.4916 13.8485 10.553C14.1396 10.6144 14.4131 10.7412 14.648 10.9238L17.2423 12.942C18.1749 13.6677 18.2604 15.0458 17.4257 15.8794L16.2624 17.0427C15.4299 17.8752 14.1857 18.2408 13.0258 17.8324C10.0571 16.7879 7.36171 15.0884 5.13953 12.8599C2.91123 10.6381 1.21171 7.94306 0.16703 4.97479C-0.24022 3.81604 0.125405 2.57067 0.957905 1.73817L2.12115 0.574918Z" fill="black"/>
</g>
<defs>
<clipPath id="clip0_198_7256">
<rect width="18" height="18" fill="white"/>
</clipPath>
</defs>
</svg>
