<svg width="39" height="40" viewBox="0 0 39 40" fill="none" xmlns="http://www.w3.org/2000/svg">
<path d="M38.9974 15.8222H24.3074L30.244 9.55556C24.329 3.55556 14.7524 3.33333 8.83736 9.33333C2.92236 15.3556 2.92236 25.0667 8.83736 31.1111C14.7524 37.1111 24.329 37.1111 30.244 31.1111C33.1907 28.1111 34.664 24.6222 34.664 20.2222H38.9974C38.9974 24.6222 37.0907 30.3333 33.2774 34.2C25.6724 41.9333 13.3224 41.9333 5.71736 34.2C-1.86597 26.4889 -1.93097 13.9556 5.67403 6.24444C13.279 -1.46667 25.4774 -1.46667 33.0824 6.24444L38.9974 0V15.8222ZM20.5807 11.1111V20.5556L28.164 25.1778L26.604 27.8667L17.3307 22.2222V11.1111H20.5807Z" fill="white"/>
</svg>
