<svg width="21" height="25" viewBox="0 0 21 25" fill="none" xmlns="http://www.w3.org/2000/svg">
<path d="M10.5006 22.2143C8.37883 22.2143 6.34399 21.3714 4.8437 19.8711C3.34341 18.3708 2.50056 16.336 2.50056 14.2143C2.50056 12.0926 3.34341 10.0577 4.8437 8.55743C6.34399 7.05714 8.37883 6.21429 10.5006 6.21429C12.6223 6.21429 14.6571 7.05714 16.1574 8.55743C17.6577 10.0577 18.5006 12.0926 18.5006 14.2143C18.5006 16.336 17.6577 18.3708 16.1574 19.8711C14.6571 21.3714 12.6223 22.2143 10.5006 22.2143ZM18.5348 7.80286L20.1577 6.18C19.6434 5.59714 19.1291 5.07143 18.5463 4.56857L16.9234 6.21429C15.152 4.77429 12.9234 3.92857 10.5006 3.92857C7.77262 3.92857 5.1564 5.01224 3.22746 6.94119C1.29851 8.87013 0.214844 11.4863 0.214844 14.2143C0.214844 16.9422 1.29851 19.5584 3.22746 21.4874C5.1564 23.4163 7.77262 24.5 10.5006 24.5C16.2148 24.5 20.7863 19.8943 20.7863 14.2143C20.7863 11.7914 19.9406 9.56286 18.5348 7.80286ZM9.3577 15.3571H11.6434V8.5H9.3577V15.3571ZM13.9291 0.5H7.07199V2.78571H13.9291V0.5Z" fill="white"/>
</svg>
