<svg width="24" height="25" viewBox="0 0 24 25" fill="none" xmlns="http://www.w3.org/2000/svg">
<g clip-path="url(#clip0_193_1427)">
<path d="M18 3.01611C18.7956 3.01611 19.5587 3.33218 20.1213 3.89479C20.6839 4.4574 21 5.22046 21 6.01611V18.0161C21 18.8118 20.6839 19.5748 20.1213 20.1374C19.5587 20.7 18.7956 21.0161 18 21.0161H6C5.20435 21.0161 4.44129 20.7 3.87868 20.1374C3.31607 19.5748 3 18.8118 3 18.0161V6.01611C3 5.22046 3.31607 4.4574 3.87868 3.89479C4.44129 3.33218 5.20435 3.01611 6 3.01611H18ZM18 5.01611H6C5.73478 5.01611 5.48043 5.12147 5.29289 5.30901C5.10536 5.49654 5 5.7509 5 6.01611V18.0161C5 18.2813 5.10536 18.5357 5.29289 18.7232C5.48043 18.9108 5.73478 19.0161 6 19.0161H18C18.2652 19.0161 18.5196 18.9108 18.7071 18.7232C18.8946 18.5357 19 18.2813 19 18.0161V6.01611C19 5.7509 18.8946 5.49654 18.7071 5.30901C18.5196 5.12147 18.2652 5.01611 18 5.01611ZM8 10.0161C8.24493 10.0161 8.48134 10.1061 8.66437 10.2688C8.84741 10.4316 8.96434 10.6559 8.993 10.8991L9 11.0161V16.0161C8.99972 16.271 8.90212 16.5161 8.72715 16.7015C8.55218 16.8868 8.31305 16.9983 8.05861 17.0133C7.80416 17.0282 7.55362 16.9454 7.35817 16.7818C7.16271 16.6183 7.0371 16.3862 7.007 16.1331L7 16.0161V11.0161C7 10.7509 7.10536 10.4965 7.29289 10.309C7.48043 10.1215 7.73478 10.0161 8 10.0161ZM11 9.01611C11.2342 9.01608 11.461 9.09824 11.6408 9.24828C11.8206 9.39831 11.9421 9.6067 11.984 9.83711C12.1852 9.72042 12.3933 9.6159 12.607 9.52411C13.274 9.23911 14.273 9.08211 15.175 9.36511C15.648 9.51511 16.123 9.79511 16.475 10.2721C16.79 10.6971 16.96 11.2141 16.994 11.7951L17 12.0161V16.0161C16.9997 16.271 16.9021 16.5161 16.7272 16.7015C16.5522 16.8868 16.313 16.9983 16.0586 17.0133C15.8042 17.0282 15.5536 16.9454 15.3582 16.7818C15.1627 16.6183 15.0371 16.3862 15.007 16.1331L15 16.0161V12.0161C15 11.6861 14.92 11.5321 14.868 11.4611C14.7934 11.3683 14.6905 11.3023 14.575 11.2731C14.227 11.1631 13.726 11.2211 13.393 11.3631C12.893 11.5771 12.435 11.9131 12.123 12.2241L12 12.3561V16.0161C11.9997 16.271 11.9021 16.5161 11.7272 16.7015C11.5522 16.8868 11.313 16.9983 11.0586 17.0133C10.8042 17.0282 10.5536 16.9454 10.3582 16.7818C10.1627 16.6183 10.0371 16.3862 10.007 16.1331L10 16.0161V10.0161C10 9.7509 10.1054 9.49654 10.2929 9.30901C10.4804 9.12147 10.7348 9.01611 11 9.01611ZM8 7.01611C8.26522 7.01611 8.51957 7.12147 8.70711 7.30901C8.89464 7.49654 9 7.7509 9 8.01611C9 8.28133 8.89464 8.53568 8.70711 8.72322C8.51957 8.91076 8.26522 9.01611 8 9.01611C7.73478 9.01611 7.48043 8.91076 7.29289 8.72322C7.10536 8.53568 7 8.28133 7 8.01611C7 7.7509 7.10536 7.49654 7.29289 7.30901C7.48043 7.12147 7.73478 7.01611 8 7.01611Z" fill="white"/>
</g>
<defs>
<clipPath id="clip0_193_1427">
<rect width="24" height="24" fill="white" transform="translate(0 0.0161133)"/>
</clipPath>
</defs>
</svg>
