<svg width="13" height="14" viewBox="0 0 13 14" fill="none" xmlns="http://www.w3.org/2000/svg">
<path d="M6.5 12.5C5.33968 12.5 4.22688 12.0391 3.40641 11.2186C2.58594 10.3981 2.125 9.28532 2.125 8.125C2.125 6.96468 2.58594 5.85188 3.40641 5.03141C4.22688 4.21094 5.33968 3.75 6.5 3.75C7.66032 3.75 8.77312 4.21094 9.59359 5.03141C10.4141 5.85188 10.875 6.96468 10.875 8.125C10.875 9.28532 10.4141 10.3981 9.59359 11.2186C8.77312 12.0391 7.66032 12.5 6.5 12.5ZM10.8938 4.61875L11.7812 3.73125C11.5 3.4125 11.2188 3.125 10.9 2.85L10.0125 3.75C9.04375 2.9625 7.825 2.5 6.5 2.5C5.00816 2.5 3.57742 3.09263 2.52252 4.14752C1.46763 5.20242 0.875 6.63316 0.875 8.125C0.875 9.61684 1.46763 11.0476 2.52252 12.1025C3.57742 13.1574 5.00816 13.75 6.5 13.75C9.625 13.75 12.125 11.2312 12.125 8.125C12.125 6.8 11.6625 5.58125 10.8938 4.61875ZM5.875 8.75H7.125V5H5.875V8.75ZM8.375 0.625H4.625V1.875H8.375V0.625Z" fill="#2A64F6"/>
</svg>
