<svg width="120" height="21" viewBox="0 0 120 21" fill="none" xmlns="http://www.w3.org/2000/svg">
<path d="M11.5 0L14.0819 7.9463H22.4371L15.6776 12.8574L18.2595 20.8037L11.5 15.8926L4.74047 20.8037L7.32238 12.8574L0.56285 7.9463H8.91809L11.5 0Z" fill="#D9D9D9"/>
<path d="M34.5 0L37.0819 7.9463H45.4371L38.6776 12.8574L41.2595 20.8037L34.5 15.8926L27.7405 20.8037L30.3224 12.8574L23.5628 7.9463H31.9181L34.5 0Z" fill="#D9D9D9"/>
<path d="M59.5 0L62.0819 7.9463H70.4371L63.6776 12.8574L66.2595 20.8037L59.5 15.8926L52.7405 20.8037L55.3224 12.8574L48.5628 7.9463H56.9181L59.5 0Z" fill="#D9D9D9"/>
<path d="M83.5 0L86.0819 7.9463H94.4371L87.6776 12.8574L90.2595 20.8037L83.5 15.8926L76.7405 20.8037L79.3224 12.8574L72.5628 7.9463H80.9181L83.5 0Z" fill="#D9D9D9"/>
<path d="M108.5 0L111.082 7.9463H119.437L112.678 12.8574L115.26 20.8037L108.5 15.8926L101.74 20.8037L104.322 12.8574L97.5628 7.9463H105.918L108.5 0Z" fill="#D9D9D9"/>
</svg>
