<svg width="23" height="25" viewBox="0 0 23 25" fill="none" xmlns="http://www.w3.org/2000/svg">
<path d="M21.7104 17.1866L22.5604 12.2712C22.7727 11.0435 21.8286 9.92063 20.5841 9.92063H14.3418C13.7232 9.92063 13.2521 9.36531 13.3522 8.75411L14.1506 3.88119C14.2804 3.08955 14.2433 2.2795 14.0419 1.50302C13.875 0.859801 13.3787 0.343312 12.7261 0.133652L12.5514 0.0775318C12.1569 -0.0491778 11.7265 -0.019696 11.3545 0.159507C10.9453 0.356758 10.6457 0.716538 10.5348 1.14444L9.96165 3.35387C9.77924 4.05687 9.5137 4.73544 9.17118 5.3766C8.67075 6.3134 7.89705 7.06314 7.0928 7.75618L5.3594 9.2499C4.87065 9.67111 4.61398 10.3018 4.6696 10.945L5.6481 22.2614C5.73785 23.2993 6.60567 24.0961 7.64636 24.0961H13.247C17.4413 24.0961 21.0208 21.1738 21.7104 17.1866Z" fill="#2A64F6"/>
<path opacity="0.5" fill-rule="evenodd" clip-rule="evenodd" d="M0.864654 9.01843C1.3481 8.99758 1.76216 9.36126 1.80385 9.84339L2.97444 23.3812C3.04963 24.2508 2.36465 25.0003 1.49 25.0003C0.666126 25.0003 0 24.3319 0 23.5096V9.92122C0 9.43731 0.381201 9.0393 0.864654 9.01843Z" fill="#2A64F6"/>
</svg>
