<svg width="25" height="25" viewBox="0 0 25 25" fill="none" xmlns="http://www.w3.org/2000/svg">
<path fill-rule="evenodd" clip-rule="evenodd" d="M4.45164 0H20.5498C22.0971 0 22.6596 0.16112 23.2249 0.463915C23.7902 0.766709 24.2347 1.21118 24.5375 1.77649C24.8403 2.3418 25.0014 2.90294 25.0014 4.45164V14.8828L18.9024 9.25329C18.6811 9.04909 18.4182 8.89529 18.1317 8.80248C17.8452 8.70968 17.542 8.68008 17.243 8.71573C16.944 8.75137 16.6562 8.85141 16.3996 9.00896C16.143 9.1665 15.9235 9.3778 15.7564 9.62831L11.409 16.1495L8.21018 14.0938C7.78371 13.8199 7.272 13.7107 6.77086 13.7869C6.26973 13.8631 5.81357 14.1194 5.4878 14.5077L0.00694499 21.0428C0.00238221 20.8785 6.68897e-05 20.7141 0 20.5498V4.45164C0 2.90294 0.16112 2.3418 0.463915 1.77649C0.766709 1.21118 1.21118 0.766709 1.77649 0.463915C2.3418 0.16112 2.90294 0 4.45164 0ZM17.6149 11.8479L25.0014 18.6635V20.5484C25.0014 22.0957 24.8403 22.6582 24.5375 23.2235C24.2414 23.7827 23.7841 24.24 23.2249 24.5361C22.6596 24.8389 22.0984 25 20.5498 25H4.45164C2.90294 25 2.3418 24.8389 1.77649 24.5361C1.53217 24.4061 1.30574 24.2451 1.10284 24.0569L7.22262 16.7607L10.4811 18.8552C10.9409 19.1506 11.4983 19.2536 12.0333 19.1419C12.5683 19.0301 13.0379 18.7127 13.341 18.258L17.6149 11.8479ZM6.92816 4.1669C5.38641 4.1669 4.1669 5.32252 4.1669 6.92816C4.1669 8.5352 5.3878 9.72276 6.92816 9.72276C8.50186 9.72276 9.72276 8.5352 9.72276 6.92816C9.72276 5.32252 8.50186 4.1669 6.92816 4.1669Z" fill="#2A64F6"/>
</svg>
