<svg width="25" height="25" viewBox="0 0 25 25" fill="none" xmlns="http://www.w3.org/2000/svg">
<path fill-rule="evenodd" clip-rule="evenodd" d="M11.6037 6.26504V1.00139C11.6341 0.733747 11.5618 0.466144 11.3584 0.260951C11.0051 -0.0869837 10.4323 -0.0869837 10.0791 0.260951L1.16746 10.0388C0.979218 10.2261 0.898923 10.467 0.911413 10.7168C0.898923 10.9577 0.979218 11.2075 1.16746 11.3949L10.03 21.1103C10.361 21.3958 10.9685 21.5563 11.3584 21.1637C11.5609 20.9675 11.6501 20.7891 11.6189 20.5304V15.1775C17.507 15.1775 22.8322 19.4152 23.8894 25C24.6013 23.3585 25.001 21.5563 25.001 19.6561C25.001 12.2602 19.0022 6.26504 11.6037 6.26504Z" fill="#2A64F6"/>
</svg>
