<svg width="25" height="25" viewBox="0 0 25 25" fill="none" xmlns="http://www.w3.org/2000/svg">
<path d="M20.9996 7.65205L9.10894 1.70674C1.12166 -2.29385 -2.1566 0.984407 1.84399 8.97169L3.0525 11.3887C3.39977 12.0972 3.39977 12.9167 3.0525 13.6252L1.84399 16.0283C-2.1566 24.0156 1.10777 27.2938 9.10894 23.2933L20.9996 17.348C26.3337 14.6809 26.3337 10.3191 20.9996 7.65205ZM16.5128 13.5418H9.0117C8.44217 13.5418 7.96988 13.0695 7.96988 12.5C7.96988 11.9305 8.44217 11.4582 9.0117 11.4582H16.5128C17.0823 11.4582 17.5546 11.9305 17.5546 12.5C17.5546 13.0695 17.0823 13.5418 16.5128 13.5418Z" fill="#2A64F6"/>
</svg>
