<svg width="152" height="32" viewBox="0 0 152 32" fill="none" xmlns="http://www.w3.org/2000/svg">
<rect width="32" height="32" rx="16" fill="#F4F4F4"/>
<path fill-rule="evenodd" clip-rule="evenodd" d="M24.9999 11.6601V12.0001C25.0007 13.0662 24.576 14.0885 23.8199 14.84L20.9999 17.67C20.4738 18.1911 19.6261 18.1911 19.1 17.67L19 17.56C18.8094 17.3656 18.8094 17.0544 19 16.86L22.4399 13.4201C22.807 13.0394 23.0083 12.5288 22.9999 12.0001V11.6601C23.0003 11.127 22.788 10.6159 22.4099 10.2401L21.7599 9.59011C21.3841 9.21207 20.873 8.99969 20.3399 9.00011H19.9999C19.4669 8.99969 18.9558 9.21207 18.58 9.59011L15.14 13.0001C14.9456 13.1906 14.6344 13.1906 14.44 13.0001L14.33 12.8901C13.8089 12.3639 13.8089 11.5162 14.33 10.9901L17.16 8.15012C17.9165 7.40505 18.9382 6.99133 19.9999 7.00014H20.3399C21.4011 6.9993 22.4191 7.42018 23.1699 8.17012L23.8299 8.83012C24.5798 9.5809 25.0007 10.5989 24.9999 11.6601ZM12.6499 17.94L17.9399 12.6501C18.0338 12.5554 18.1616 12.5022 18.2949 12.5022C18.4282 12.5022 18.556 12.5554 18.6499 12.6501L19.3499 13.3501C19.4445 13.4439 19.4978 13.5717 19.4978 13.7051C19.4978 13.8384 19.4445 13.9662 19.3499 14.0601L14.0599 19.35C13.966 19.4447 13.8382 19.4979 13.7049 19.4979C13.5716 19.4979 13.4438 19.4447 13.3499 19.35L12.6499 18.65C12.5553 18.5561 12.502 18.4283 12.502 18.295C12.502 18.1617 12.5553 18.0339 12.6499 17.94ZM17.5599 19C17.3655 18.8094 17.0543 18.8094 16.8599 19L13.4299 22.41C13.0517 22.7905 12.5365 23.003 12 22.9999H11.66C11.1269 23.0004 10.6158 22.788 10.24 22.41L9.58997 21.76C9.21194 21.3842 8.99956 20.873 8.99998 20.34V20C8.99956 19.4669 9.21194 18.9558 9.58997 18.58L13.0099 15.14C13.2005 14.9456 13.2005 14.6345 13.0099 14.44L12.8999 14.33C12.3738 13.8089 11.5261 13.8089 11 14.33L8.17999 17.16C7.42392 17.9116 6.99916 18.9339 7 20V20.35C7.00182 21.4077 7.42249 22.4216 8.16999 23.1699L8.82998 23.8299C9.58076 24.5799 10.5988 25.0008 11.66 24.9999H12C13.0534 25.0061 14.0667 24.5964 14.8199 23.8599L17.6699 21.01C18.191 20.4838 18.191 19.6361 17.6699 19.11L17.5599 19Z" fill="black"/>
<rect x="40" width="32" height="32" rx="16" fill="#F4F4F4"/>
<path fill-rule="evenodd" clip-rule="evenodd" d="M49 7H63C64.1046 7 65 7.89543 65 9V23C65 24.1046 64.1046 25 63 25H49C47.8954 25 47 24.1046 47 23V9C47 7.89543 47.8954 7 49 7ZM52 22C52.2761 22 52.5 21.7761 52.5 21.5V14.5C52.5 14.2239 52.2761 14 52 14H50.5C50.2239 14 50 14.2239 50 14.5V21.5C50 21.7761 50.2239 22 50.5 22H52ZM51.25 13C50.4216 13 49.75 12.3284 49.75 11.5C49.75 10.6716 50.4216 10 51.25 10C52.0784 10 52.75 10.6716 52.75 11.5C52.75 12.3284 52.0784 13 51.25 13ZM61.5 22C61.7761 22 62 21.7761 62 21.5V16.9C62.0325 15.3108 60.8576 13.9545 59.28 13.76C58.177 13.6593 57.1083 14.1744 56.5 15.1V14.5C56.5 14.2239 56.2761 14 56 14H54.5C54.2239 14 54 14.2239 54 14.5V21.5C54 21.7761 54.2239 22 54.5 22H56C56.2761 22 56.5 21.7761 56.5 21.5V17.75C56.5 16.9216 57.1716 16.25 58 16.25C58.8284 16.25 59.5 16.9216 59.5 17.75V21.5C59.5 21.7761 59.7239 22 60 22H61.5Z" fill="black"/>
<rect x="80" width="32" height="32" rx="16" fill="#F4F4F4"/>
<path d="M104.974 10.7174C104.509 11.3369 103.948 11.8773 103.311 12.3178C103.311 12.4796 103.311 12.6414 103.311 12.8123C103.316 15.7511 102.142 18.5691 100.053 20.6345C97.9629 22.6999 95.1321 23.8399 92.1949 23.7989C90.4968 23.8046 88.8205 23.4169 87.2973 22.6661C87.2151 22.6302 87.1622 22.549 87.1625 22.4593V22.3604C87.1625 22.2313 87.2671 22.1267 87.3961 22.1267C89.0653 22.0716 90.6749 21.4929 91.9972 20.4724C90.4864 20.4419 89.127 19.5469 88.5015 18.1707C88.4699 18.0956 88.4797 18.0093 88.5274 17.9432C88.5751 17.8771 88.6539 17.8407 88.7351 17.8471C89.1943 17.8932 89.658 17.8505 90.1011 17.7212C88.4332 17.375 87.1801 15.9904 87.0007 14.2957C86.9943 14.2144 87.0308 14.1357 87.0969 14.0879C87.1629 14.0402 87.2491 14.0303 87.3242 14.062C87.7718 14.2595 88.2549 14.3635 88.7441 14.3676C87.2827 13.4085 86.6515 11.5841 87.2074 9.92622C87.2648 9.76513 87.4027 9.64612 87.5704 9.61294C87.738 9.57975 87.9108 9.63728 88.0252 9.76439C89.9972 11.8633 92.7069 13.114 95.5828 13.2528C95.5092 12.9589 95.473 12.6568 95.475 12.3537C95.5019 10.7647 96.4851 9.34921 97.9643 8.76987C99.4434 8.19054 101.126 8.56203 102.224 9.71044C102.972 9.56785 103.696 9.31645 104.372 8.96421C104.421 8.93331 104.484 8.93331 104.533 8.96421C104.564 9.01373 104.564 9.07652 104.533 9.12604C104.206 9.87552 103.653 10.5041 102.952 10.9242C103.566 10.853 104.169 10.7081 104.749 10.4926C104.798 10.4594 104.862 10.4594 104.911 10.4926C104.952 10.5113 104.982 10.5471 104.994 10.5904C105.006 10.6337 104.999 10.6802 104.974 10.7174Z" fill="black"/>
<rect x="120" width="32" height="32" rx="16" fill="#F4F4F4"/>
<path d="M140.5 10H137.5C136.948 10 136.5 10.4477 136.5 11V14H140.5C140.614 13.9975 140.722 14.0504 140.789 14.1419C140.857 14.2334 140.876 14.352 140.84 14.46L140.1 16.66C140.032 16.8619 139.843 16.9984 139.63 17H136.5V24.5C136.5 24.7761 136.276 25 136 25H133.5C133.224 25 133 24.7761 133 24.5V17H131.5C131.224 17 131 16.7761 131 16.5V14.5C131 14.2239 131.224 14 131.5 14H133V11C133 8.79086 134.791 7 137 7H140.5C140.776 7 141 7.22386 141 7.5V9.5C141 9.77614 140.776 10 140.5 10Z" fill="black"/>
</svg>
