<svg width="86" height="14" viewBox="0 0 86 14" fill="none" xmlns="http://www.w3.org/2000/svg">
<path d="M2.67033 13.3063L3.81886 8.38518L0 5.07668L5.03037 4.64135L7.00046 0L8.97056 4.64042L14 5.07575L10.1821 8.38425L11.3306 13.3053L7.00046 10.6933L2.67033 13.3063Z" fill="#2A64F6"/>
<path d="M20.6703 13.3063L21.8189 8.38518L18 5.07668L23.0304 4.64135L25.0005 0L26.9706 4.64042L32 5.07575L28.1821 8.38425L29.3306 13.3053L25.0005 10.6933L20.6703 13.3063Z" fill="#2A64F6"/>
<path d="M38.6703 13.3063L39.8189 8.38518L36 5.07668L41.0304 4.64135L43.0005 0L44.9706 4.64042L50 5.07575L46.1821 8.38425L47.3306 13.3053L43.0005 10.6933L38.6703 13.3063Z" fill="#2A64F6"/>
<path d="M56.6703 13.3063L57.8189 8.38518L54 5.07668L59.0304 4.64135L61.0005 0L62.9706 4.64042L68 5.07575L64.1821 8.38425L65.3306 13.3053L61.0005 10.6933L56.6703 13.3063Z" fill="#2A64F6"/>
<path d="M76.0828 11.363L79.0005 9.60318L81.9181 11.3862L81.154 8.05174L83.7242 5.82878L80.3435 5.52775L79.0005 2.37856L77.6574 5.5046L74.2767 5.80562L76.847 8.05174L76.0828 11.363ZM74.6703 13.3063L75.8189 8.38518L72 5.07668L77.0304 4.64135L79.0005 0L80.9706 4.64042L86 5.07575L82.1821 8.38425L83.3306 13.3053L79.0005 10.6933L74.6703 13.3063Z" fill="#2A64F6"/>
<path d="M74.6703 13.3063L75.8189 8.38518L72 5.07668L77.0304 4.64135L79.0005 0V5.30625L79 8.30627L79.0005 10.6933L74.6703 13.3063Z" fill="#2A64F6"/>
</svg>
