<svg width="40" height="10" viewBox="0 0 40 10" fill="none" xmlns="http://www.w3.org/2000/svg">
<path d="M35.4627 9.99873H34.3683C34.2795 9.97466 34.1996 9.93537 34.1108 9.9189C31.8087 9.5704 29.9907 7.68597 29.8374 5.47586C29.6611 3.00469 31.0928 0.913699 33.4258 0.233177C33.7323 0.145736 34.0541 0.0823727 34.367 0.00380213H35.4614C35.5335 0.0278802 35.5979 0.0671651 35.679 0.0747687C37.8035 0.415663 39.4206 1.91991 39.879 3.97922C39.9112 4.13763 39.9601 4.29603 40 4.45444V5.53162C39.9755 5.60259 39.9356 5.67482 39.9279 5.74579C39.5906 7.80509 38.1009 9.37397 36.0331 9.8492C35.8322 9.89735 35.6468 9.95184 35.4614 10L35.4627 9.99873ZM4.52956 0.00253435H5.62397C5.71281 0.0266124 5.79264 0.0658986 5.88148 0.0735022C8.19905 0.429604 10.0093 2.3229 10.1548 4.55582C10.3158 7.01939 8.86729 9.10277 6.52525 9.77569C6.22783 9.86314 5.9214 9.9265 5.62397 9.99747H4.52956C4.45746 9.97339 4.39309 9.9341 4.32098 9.91763C2.22873 9.53745 0.860077 8.34115 0.208581 6.3452C0.119741 6.08415 0.0721022 5.80661 0 5.53795V4.46078C0.0244633 4.38981 0.064377 4.31758 0.0721022 4.24661C0.41845 2.1797 1.89912 0.618426 3.96691 0.143201C4.16004 0.0963122 4.34545 0.0481561 4.52956 0V0.00253435ZM19.4496 0.00253435H20.544C20.6328 0.0266124 20.7127 0.0658985 20.8015 0.082373C23.1113 0.438475 24.9705 2.40274 25.0671 4.62045C25.1791 7.1157 23.6508 9.2295 21.2933 9.82385C21.0436 9.88721 20.7951 9.94297 20.5453 9.99747H19.4509C19.362 9.97339 19.2822 9.9341 19.1934 9.91763C16.8835 9.56913 15.0243 7.59726 14.92 5.37955C14.799 2.8843 16.3363 0.770498 18.6938 0.17615C18.9513 0.112787 19.2011 0.0570268 19.4509 0.00253435H19.4496Z" fill="#2A64F6"/>
</svg>
